%TF.GenerationSoftware,KiCad,Pcbnew,7.0.7*%
%TF.CreationDate,2024-05-23T09:45:07-07:00*%
%TF.ProjectId,Motor Programmer Rev. 2,4d6f746f-7220-4507-926f-6772616d6d65,rev?*%
%TF.SameCoordinates,Original*%
%TF.FileFunction,Legend,Top*%
%TF.FilePolarity,Positive*%
%FSLAX46Y46*%
G04 Gerber Fmt 4.6, Leading zero omitted, Abs format (unit mm)*
G04 Created by KiCad (PCBNEW 7.0.7) date 2024-05-23 09:45:07*
%MOMM*%
%LPD*%
G01*
G04 APERTURE LIST*
%ADD10C,0.300000*%
%ADD11C,0.150000*%
%ADD12C,0.120000*%
%ADD13C,0.127000*%
%ADD14C,0.200000*%
%ADD15C,0.203200*%
%ADD16C,0.152400*%
G04 APERTURE END LIST*
D10*
X88020600Y-109197368D02*
X87949171Y-109054510D01*
X87949171Y-109054510D02*
X87949171Y-108768796D01*
X87949171Y-108768796D02*
X88020600Y-108625939D01*
X88020600Y-108625939D02*
X88092028Y-108554510D01*
X88092028Y-108554510D02*
X88234885Y-108483082D01*
X88234885Y-108483082D02*
X88663457Y-108483082D01*
X88663457Y-108483082D02*
X88806314Y-108554510D01*
X88806314Y-108554510D02*
X88877742Y-108625939D01*
X88877742Y-108625939D02*
X88949171Y-108768796D01*
X88949171Y-108768796D02*
X88949171Y-109054510D01*
X88949171Y-109054510D02*
X88877742Y-109197368D01*
X87949171Y-110483082D02*
X88734885Y-110483082D01*
X88734885Y-110483082D02*
X88877742Y-110411653D01*
X88877742Y-110411653D02*
X88949171Y-110268796D01*
X88949171Y-110268796D02*
X88949171Y-109983082D01*
X88949171Y-109983082D02*
X88877742Y-109840224D01*
X88020600Y-110483082D02*
X87949171Y-110340224D01*
X87949171Y-110340224D02*
X87949171Y-109983082D01*
X87949171Y-109983082D02*
X88020600Y-109840224D01*
X88020600Y-109840224D02*
X88163457Y-109768796D01*
X88163457Y-109768796D02*
X88306314Y-109768796D01*
X88306314Y-109768796D02*
X88449171Y-109840224D01*
X88449171Y-109840224D02*
X88520600Y-109983082D01*
X88520600Y-109983082D02*
X88520600Y-110340224D01*
X88520600Y-110340224D02*
X88592028Y-110483082D01*
X88949171Y-111197367D02*
X87949171Y-111197367D01*
X88806314Y-111197367D02*
X88877742Y-111268796D01*
X88877742Y-111268796D02*
X88949171Y-111411653D01*
X88949171Y-111411653D02*
X88949171Y-111625939D01*
X88949171Y-111625939D02*
X88877742Y-111768796D01*
X88877742Y-111768796D02*
X88734885Y-111840225D01*
X88734885Y-111840225D02*
X87949171Y-111840225D01*
X87949171Y-112554510D02*
X89449171Y-112554510D01*
X87949171Y-113197368D02*
X88734885Y-113197368D01*
X88734885Y-113197368D02*
X88877742Y-113125939D01*
X88877742Y-113125939D02*
X88949171Y-112983082D01*
X88949171Y-112983082D02*
X88949171Y-112768796D01*
X88949171Y-112768796D02*
X88877742Y-112625939D01*
X88877742Y-112625939D02*
X88806314Y-112554510D01*
D11*
X106988207Y-96379819D02*
X106654874Y-95903628D01*
X106416779Y-96379819D02*
X106416779Y-95379819D01*
X106416779Y-95379819D02*
X106797731Y-95379819D01*
X106797731Y-95379819D02*
X106892969Y-95427438D01*
X106892969Y-95427438D02*
X106940588Y-95475057D01*
X106940588Y-95475057D02*
X106988207Y-95570295D01*
X106988207Y-95570295D02*
X106988207Y-95713152D01*
X106988207Y-95713152D02*
X106940588Y-95808390D01*
X106940588Y-95808390D02*
X106892969Y-95856009D01*
X106892969Y-95856009D02*
X106797731Y-95903628D01*
X106797731Y-95903628D02*
X106416779Y-95903628D01*
X107797731Y-96332200D02*
X107702493Y-96379819D01*
X107702493Y-96379819D02*
X107512017Y-96379819D01*
X107512017Y-96379819D02*
X107416779Y-96332200D01*
X107416779Y-96332200D02*
X107369160Y-96236961D01*
X107369160Y-96236961D02*
X107369160Y-95856009D01*
X107369160Y-95856009D02*
X107416779Y-95760771D01*
X107416779Y-95760771D02*
X107512017Y-95713152D01*
X107512017Y-95713152D02*
X107702493Y-95713152D01*
X107702493Y-95713152D02*
X107797731Y-95760771D01*
X107797731Y-95760771D02*
X107845350Y-95856009D01*
X107845350Y-95856009D02*
X107845350Y-95951247D01*
X107845350Y-95951247D02*
X107369160Y-96046485D01*
X108226303Y-96332200D02*
X108321541Y-96379819D01*
X108321541Y-96379819D02*
X108512017Y-96379819D01*
X108512017Y-96379819D02*
X108607255Y-96332200D01*
X108607255Y-96332200D02*
X108654874Y-96236961D01*
X108654874Y-96236961D02*
X108654874Y-96189342D01*
X108654874Y-96189342D02*
X108607255Y-96094104D01*
X108607255Y-96094104D02*
X108512017Y-96046485D01*
X108512017Y-96046485D02*
X108369160Y-96046485D01*
X108369160Y-96046485D02*
X108273922Y-95998866D01*
X108273922Y-95998866D02*
X108226303Y-95903628D01*
X108226303Y-95903628D02*
X108226303Y-95856009D01*
X108226303Y-95856009D02*
X108273922Y-95760771D01*
X108273922Y-95760771D02*
X108369160Y-95713152D01*
X108369160Y-95713152D02*
X108512017Y-95713152D01*
X108512017Y-95713152D02*
X108607255Y-95760771D01*
X109464398Y-96332200D02*
X109369160Y-96379819D01*
X109369160Y-96379819D02*
X109178684Y-96379819D01*
X109178684Y-96379819D02*
X109083446Y-96332200D01*
X109083446Y-96332200D02*
X109035827Y-96236961D01*
X109035827Y-96236961D02*
X109035827Y-95856009D01*
X109035827Y-95856009D02*
X109083446Y-95760771D01*
X109083446Y-95760771D02*
X109178684Y-95713152D01*
X109178684Y-95713152D02*
X109369160Y-95713152D01*
X109369160Y-95713152D02*
X109464398Y-95760771D01*
X109464398Y-95760771D02*
X109512017Y-95856009D01*
X109512017Y-95856009D02*
X109512017Y-95951247D01*
X109512017Y-95951247D02*
X109035827Y-96046485D01*
X109797732Y-95713152D02*
X110178684Y-95713152D01*
X109940589Y-95379819D02*
X109940589Y-96236961D01*
X109940589Y-96236961D02*
X109988208Y-96332200D01*
X109988208Y-96332200D02*
X110083446Y-96379819D01*
X110083446Y-96379819D02*
X110178684Y-96379819D01*
X117866009Y-90899887D02*
X117913628Y-90757030D01*
X117913628Y-90757030D02*
X117961247Y-90709411D01*
X117961247Y-90709411D02*
X118056485Y-90661792D01*
X118056485Y-90661792D02*
X118199342Y-90661792D01*
X118199342Y-90661792D02*
X118294580Y-90709411D01*
X118294580Y-90709411D02*
X118342200Y-90757030D01*
X118342200Y-90757030D02*
X118389819Y-90852268D01*
X118389819Y-90852268D02*
X118389819Y-91233220D01*
X118389819Y-91233220D02*
X117389819Y-91233220D01*
X117389819Y-91233220D02*
X117389819Y-90899887D01*
X117389819Y-90899887D02*
X117437438Y-90804649D01*
X117437438Y-90804649D02*
X117485057Y-90757030D01*
X117485057Y-90757030D02*
X117580295Y-90709411D01*
X117580295Y-90709411D02*
X117675533Y-90709411D01*
X117675533Y-90709411D02*
X117770771Y-90757030D01*
X117770771Y-90757030D02*
X117818390Y-90804649D01*
X117818390Y-90804649D02*
X117866009Y-90899887D01*
X117866009Y-90899887D02*
X117866009Y-91233220D01*
X118389819Y-90090363D02*
X118342200Y-90185601D01*
X118342200Y-90185601D02*
X118294580Y-90233220D01*
X118294580Y-90233220D02*
X118199342Y-90280839D01*
X118199342Y-90280839D02*
X117913628Y-90280839D01*
X117913628Y-90280839D02*
X117818390Y-90233220D01*
X117818390Y-90233220D02*
X117770771Y-90185601D01*
X117770771Y-90185601D02*
X117723152Y-90090363D01*
X117723152Y-90090363D02*
X117723152Y-89947506D01*
X117723152Y-89947506D02*
X117770771Y-89852268D01*
X117770771Y-89852268D02*
X117818390Y-89804649D01*
X117818390Y-89804649D02*
X117913628Y-89757030D01*
X117913628Y-89757030D02*
X118199342Y-89757030D01*
X118199342Y-89757030D02*
X118294580Y-89804649D01*
X118294580Y-89804649D02*
X118342200Y-89852268D01*
X118342200Y-89852268D02*
X118389819Y-89947506D01*
X118389819Y-89947506D02*
X118389819Y-90090363D01*
X118389819Y-89185601D02*
X118342200Y-89280839D01*
X118342200Y-89280839D02*
X118294580Y-89328458D01*
X118294580Y-89328458D02*
X118199342Y-89376077D01*
X118199342Y-89376077D02*
X117913628Y-89376077D01*
X117913628Y-89376077D02*
X117818390Y-89328458D01*
X117818390Y-89328458D02*
X117770771Y-89280839D01*
X117770771Y-89280839D02*
X117723152Y-89185601D01*
X117723152Y-89185601D02*
X117723152Y-89042744D01*
X117723152Y-89042744D02*
X117770771Y-88947506D01*
X117770771Y-88947506D02*
X117818390Y-88899887D01*
X117818390Y-88899887D02*
X117913628Y-88852268D01*
X117913628Y-88852268D02*
X118199342Y-88852268D01*
X118199342Y-88852268D02*
X118294580Y-88899887D01*
X118294580Y-88899887D02*
X118342200Y-88947506D01*
X118342200Y-88947506D02*
X118389819Y-89042744D01*
X118389819Y-89042744D02*
X118389819Y-89185601D01*
X117723152Y-88566553D02*
X117723152Y-88185601D01*
X117389819Y-88423696D02*
X118246961Y-88423696D01*
X118246961Y-88423696D02*
X118342200Y-88376077D01*
X118342200Y-88376077D02*
X118389819Y-88280839D01*
X118389819Y-88280839D02*
X118389819Y-88185601D01*
X176309160Y-84402200D02*
X176452017Y-84449819D01*
X176452017Y-84449819D02*
X176690112Y-84449819D01*
X176690112Y-84449819D02*
X176785350Y-84402200D01*
X176785350Y-84402200D02*
X176832969Y-84354580D01*
X176832969Y-84354580D02*
X176880588Y-84259342D01*
X176880588Y-84259342D02*
X176880588Y-84164104D01*
X176880588Y-84164104D02*
X176832969Y-84068866D01*
X176832969Y-84068866D02*
X176785350Y-84021247D01*
X176785350Y-84021247D02*
X176690112Y-83973628D01*
X176690112Y-83973628D02*
X176499636Y-83926009D01*
X176499636Y-83926009D02*
X176404398Y-83878390D01*
X176404398Y-83878390D02*
X176356779Y-83830771D01*
X176356779Y-83830771D02*
X176309160Y-83735533D01*
X176309160Y-83735533D02*
X176309160Y-83640295D01*
X176309160Y-83640295D02*
X176356779Y-83545057D01*
X176356779Y-83545057D02*
X176404398Y-83497438D01*
X176404398Y-83497438D02*
X176499636Y-83449819D01*
X176499636Y-83449819D02*
X176737731Y-83449819D01*
X176737731Y-83449819D02*
X176880588Y-83497438D01*
X177690112Y-84402200D02*
X177594874Y-84449819D01*
X177594874Y-84449819D02*
X177404398Y-84449819D01*
X177404398Y-84449819D02*
X177309160Y-84402200D01*
X177309160Y-84402200D02*
X177261541Y-84306961D01*
X177261541Y-84306961D02*
X177261541Y-83926009D01*
X177261541Y-83926009D02*
X177309160Y-83830771D01*
X177309160Y-83830771D02*
X177404398Y-83783152D01*
X177404398Y-83783152D02*
X177594874Y-83783152D01*
X177594874Y-83783152D02*
X177690112Y-83830771D01*
X177690112Y-83830771D02*
X177737731Y-83926009D01*
X177737731Y-83926009D02*
X177737731Y-84021247D01*
X177737731Y-84021247D02*
X177261541Y-84116485D01*
X178309160Y-84449819D02*
X178213922Y-84402200D01*
X178213922Y-84402200D02*
X178166303Y-84306961D01*
X178166303Y-84306961D02*
X178166303Y-83449819D01*
X176546779Y-99449819D02*
X176546779Y-98449819D01*
X176546779Y-98449819D02*
X176784874Y-98449819D01*
X176784874Y-98449819D02*
X176927731Y-98497438D01*
X176927731Y-98497438D02*
X177022969Y-98592676D01*
X177022969Y-98592676D02*
X177070588Y-98687914D01*
X177070588Y-98687914D02*
X177118207Y-98878390D01*
X177118207Y-98878390D02*
X177118207Y-99021247D01*
X177118207Y-99021247D02*
X177070588Y-99211723D01*
X177070588Y-99211723D02*
X177022969Y-99306961D01*
X177022969Y-99306961D02*
X176927731Y-99402200D01*
X176927731Y-99402200D02*
X176784874Y-99449819D01*
X176784874Y-99449819D02*
X176546779Y-99449819D01*
X177689636Y-99449819D02*
X177594398Y-99402200D01*
X177594398Y-99402200D02*
X177546779Y-99354580D01*
X177546779Y-99354580D02*
X177499160Y-99259342D01*
X177499160Y-99259342D02*
X177499160Y-98973628D01*
X177499160Y-98973628D02*
X177546779Y-98878390D01*
X177546779Y-98878390D02*
X177594398Y-98830771D01*
X177594398Y-98830771D02*
X177689636Y-98783152D01*
X177689636Y-98783152D02*
X177832493Y-98783152D01*
X177832493Y-98783152D02*
X177927731Y-98830771D01*
X177927731Y-98830771D02*
X177975350Y-98878390D01*
X177975350Y-98878390D02*
X178022969Y-98973628D01*
X178022969Y-98973628D02*
X178022969Y-99259342D01*
X178022969Y-99259342D02*
X177975350Y-99354580D01*
X177975350Y-99354580D02*
X177927731Y-99402200D01*
X177927731Y-99402200D02*
X177832493Y-99449819D01*
X177832493Y-99449819D02*
X177689636Y-99449819D01*
X178356303Y-98783152D02*
X178546779Y-99449819D01*
X178546779Y-99449819D02*
X178737255Y-98973628D01*
X178737255Y-98973628D02*
X178927731Y-99449819D01*
X178927731Y-99449819D02*
X179118207Y-98783152D01*
X179499160Y-98783152D02*
X179499160Y-99449819D01*
X179499160Y-98878390D02*
X179546779Y-98830771D01*
X179546779Y-98830771D02*
X179642017Y-98783152D01*
X179642017Y-98783152D02*
X179784874Y-98783152D01*
X179784874Y-98783152D02*
X179880112Y-98830771D01*
X179880112Y-98830771D02*
X179927731Y-98926009D01*
X179927731Y-98926009D02*
X179927731Y-99449819D01*
D10*
X84840225Y-87550828D02*
X85125939Y-87550828D01*
X85125939Y-87550828D02*
X85268796Y-87622257D01*
X85268796Y-87622257D02*
X85411653Y-87765114D01*
X85411653Y-87765114D02*
X85483082Y-88050828D01*
X85483082Y-88050828D02*
X85483082Y-88550828D01*
X85483082Y-88550828D02*
X85411653Y-88836542D01*
X85411653Y-88836542D02*
X85268796Y-88979400D01*
X85268796Y-88979400D02*
X85125939Y-89050828D01*
X85125939Y-89050828D02*
X84840225Y-89050828D01*
X84840225Y-89050828D02*
X84697368Y-88979400D01*
X84697368Y-88979400D02*
X84554510Y-88836542D01*
X84554510Y-88836542D02*
X84483082Y-88550828D01*
X84483082Y-88550828D02*
X84483082Y-88050828D01*
X84483082Y-88050828D02*
X84554510Y-87765114D01*
X84554510Y-87765114D02*
X84697368Y-87622257D01*
X84697368Y-87622257D02*
X84840225Y-87550828D01*
X86125939Y-89050828D02*
X86125939Y-87550828D01*
X86125939Y-87550828D02*
X86983082Y-89050828D01*
X86983082Y-89050828D02*
X86983082Y-87550828D01*
X174550828Y-137159774D02*
X174550828Y-136874060D01*
X174550828Y-136874060D02*
X174622257Y-136731203D01*
X174622257Y-136731203D02*
X174765114Y-136588346D01*
X174765114Y-136588346D02*
X175050828Y-136516917D01*
X175050828Y-136516917D02*
X175550828Y-136516917D01*
X175550828Y-136516917D02*
X175836542Y-136588346D01*
X175836542Y-136588346D02*
X175979400Y-136731203D01*
X175979400Y-136731203D02*
X176050828Y-136874060D01*
X176050828Y-136874060D02*
X176050828Y-137159774D01*
X176050828Y-137159774D02*
X175979400Y-137302632D01*
X175979400Y-137302632D02*
X175836542Y-137445489D01*
X175836542Y-137445489D02*
X175550828Y-137516917D01*
X175550828Y-137516917D02*
X175050828Y-137516917D01*
X175050828Y-137516917D02*
X174765114Y-137445489D01*
X174765114Y-137445489D02*
X174622257Y-137302632D01*
X174622257Y-137302632D02*
X174550828Y-137159774D01*
X176050828Y-135874060D02*
X174550828Y-135874060D01*
X174550828Y-135874060D02*
X176050828Y-135016917D01*
X176050828Y-135016917D02*
X174550828Y-135016917D01*
X108449171Y-39590225D02*
X108449171Y-39875939D01*
X108449171Y-39875939D02*
X108377742Y-40018796D01*
X108377742Y-40018796D02*
X108234885Y-40161653D01*
X108234885Y-40161653D02*
X107949171Y-40233082D01*
X107949171Y-40233082D02*
X107449171Y-40233082D01*
X107449171Y-40233082D02*
X107163457Y-40161653D01*
X107163457Y-40161653D02*
X107020600Y-40018796D01*
X107020600Y-40018796D02*
X106949171Y-39875939D01*
X106949171Y-39875939D02*
X106949171Y-39590225D01*
X106949171Y-39590225D02*
X107020600Y-39447368D01*
X107020600Y-39447368D02*
X107163457Y-39304510D01*
X107163457Y-39304510D02*
X107449171Y-39233082D01*
X107449171Y-39233082D02*
X107949171Y-39233082D01*
X107949171Y-39233082D02*
X108234885Y-39304510D01*
X108234885Y-39304510D02*
X108377742Y-39447368D01*
X108377742Y-39447368D02*
X108449171Y-39590225D01*
X106949171Y-40875939D02*
X108449171Y-40875939D01*
X108449171Y-40875939D02*
X106949171Y-41733082D01*
X106949171Y-41733082D02*
X108449171Y-41733082D01*
X92270600Y-81697368D02*
X92199171Y-81554510D01*
X92199171Y-81554510D02*
X92199171Y-81268796D01*
X92199171Y-81268796D02*
X92270600Y-81125939D01*
X92270600Y-81125939D02*
X92342028Y-81054510D01*
X92342028Y-81054510D02*
X92484885Y-80983082D01*
X92484885Y-80983082D02*
X92913457Y-80983082D01*
X92913457Y-80983082D02*
X93056314Y-81054510D01*
X93056314Y-81054510D02*
X93127742Y-81125939D01*
X93127742Y-81125939D02*
X93199171Y-81268796D01*
X93199171Y-81268796D02*
X93199171Y-81554510D01*
X93199171Y-81554510D02*
X93127742Y-81697368D01*
X92199171Y-82983082D02*
X92984885Y-82983082D01*
X92984885Y-82983082D02*
X93127742Y-82911653D01*
X93127742Y-82911653D02*
X93199171Y-82768796D01*
X93199171Y-82768796D02*
X93199171Y-82483082D01*
X93199171Y-82483082D02*
X93127742Y-82340224D01*
X92270600Y-82983082D02*
X92199171Y-82840224D01*
X92199171Y-82840224D02*
X92199171Y-82483082D01*
X92199171Y-82483082D02*
X92270600Y-82340224D01*
X92270600Y-82340224D02*
X92413457Y-82268796D01*
X92413457Y-82268796D02*
X92556314Y-82268796D01*
X92556314Y-82268796D02*
X92699171Y-82340224D01*
X92699171Y-82340224D02*
X92770600Y-82483082D01*
X92770600Y-82483082D02*
X92770600Y-82840224D01*
X92770600Y-82840224D02*
X92842028Y-82983082D01*
X93199171Y-83697367D02*
X92199171Y-83697367D01*
X93056314Y-83697367D02*
X93127742Y-83768796D01*
X93127742Y-83768796D02*
X93199171Y-83911653D01*
X93199171Y-83911653D02*
X93199171Y-84125939D01*
X93199171Y-84125939D02*
X93127742Y-84268796D01*
X93127742Y-84268796D02*
X92984885Y-84340225D01*
X92984885Y-84340225D02*
X92199171Y-84340225D01*
X92199171Y-85054510D02*
X93699171Y-85054510D01*
X92199171Y-85697368D02*
X92984885Y-85697368D01*
X92984885Y-85697368D02*
X93127742Y-85625939D01*
X93127742Y-85625939D02*
X93199171Y-85483082D01*
X93199171Y-85483082D02*
X93199171Y-85268796D01*
X93199171Y-85268796D02*
X93127742Y-85125939D01*
X93127742Y-85125939D02*
X93056314Y-85054510D01*
X128447368Y-131729400D02*
X128304510Y-131800828D01*
X128304510Y-131800828D02*
X128018796Y-131800828D01*
X128018796Y-131800828D02*
X127875939Y-131729400D01*
X127875939Y-131729400D02*
X127804510Y-131657971D01*
X127804510Y-131657971D02*
X127733082Y-131515114D01*
X127733082Y-131515114D02*
X127733082Y-131086542D01*
X127733082Y-131086542D02*
X127804510Y-130943685D01*
X127804510Y-130943685D02*
X127875939Y-130872257D01*
X127875939Y-130872257D02*
X128018796Y-130800828D01*
X128018796Y-130800828D02*
X128304510Y-130800828D01*
X128304510Y-130800828D02*
X128447368Y-130872257D01*
X129733082Y-131800828D02*
X129733082Y-131015114D01*
X129733082Y-131015114D02*
X129661653Y-130872257D01*
X129661653Y-130872257D02*
X129518796Y-130800828D01*
X129518796Y-130800828D02*
X129233082Y-130800828D01*
X129233082Y-130800828D02*
X129090224Y-130872257D01*
X129733082Y-131729400D02*
X129590224Y-131800828D01*
X129590224Y-131800828D02*
X129233082Y-131800828D01*
X129233082Y-131800828D02*
X129090224Y-131729400D01*
X129090224Y-131729400D02*
X129018796Y-131586542D01*
X129018796Y-131586542D02*
X129018796Y-131443685D01*
X129018796Y-131443685D02*
X129090224Y-131300828D01*
X129090224Y-131300828D02*
X129233082Y-131229400D01*
X129233082Y-131229400D02*
X129590224Y-131229400D01*
X129590224Y-131229400D02*
X129733082Y-131157971D01*
X130447367Y-130800828D02*
X130447367Y-131800828D01*
X130447367Y-130943685D02*
X130518796Y-130872257D01*
X130518796Y-130872257D02*
X130661653Y-130800828D01*
X130661653Y-130800828D02*
X130875939Y-130800828D01*
X130875939Y-130800828D02*
X131018796Y-130872257D01*
X131018796Y-130872257D02*
X131090225Y-131015114D01*
X131090225Y-131015114D02*
X131090225Y-131800828D01*
X131804510Y-131800828D02*
X131804510Y-130300828D01*
X132447368Y-131800828D02*
X132447368Y-131015114D01*
X132447368Y-131015114D02*
X132375939Y-130872257D01*
X132375939Y-130872257D02*
X132233082Y-130800828D01*
X132233082Y-130800828D02*
X132018796Y-130800828D01*
X132018796Y-130800828D02*
X131875939Y-130872257D01*
X131875939Y-130872257D02*
X131804510Y-130943685D01*
D11*
X176546779Y-71819819D02*
X176546779Y-72629342D01*
X176546779Y-72629342D02*
X176594398Y-72724580D01*
X176594398Y-72724580D02*
X176642017Y-72772200D01*
X176642017Y-72772200D02*
X176737255Y-72819819D01*
X176737255Y-72819819D02*
X176927731Y-72819819D01*
X176927731Y-72819819D02*
X177022969Y-72772200D01*
X177022969Y-72772200D02*
X177070588Y-72724580D01*
X177070588Y-72724580D02*
X177118207Y-72629342D01*
X177118207Y-72629342D02*
X177118207Y-71819819D01*
X177594398Y-72153152D02*
X177594398Y-73153152D01*
X177594398Y-72200771D02*
X177689636Y-72153152D01*
X177689636Y-72153152D02*
X177880112Y-72153152D01*
X177880112Y-72153152D02*
X177975350Y-72200771D01*
X177975350Y-72200771D02*
X178022969Y-72248390D01*
X178022969Y-72248390D02*
X178070588Y-72343628D01*
X178070588Y-72343628D02*
X178070588Y-72629342D01*
X178070588Y-72629342D02*
X178022969Y-72724580D01*
X178022969Y-72724580D02*
X177975350Y-72772200D01*
X177975350Y-72772200D02*
X177880112Y-72819819D01*
X177880112Y-72819819D02*
X177689636Y-72819819D01*
X177689636Y-72819819D02*
X177594398Y-72772200D01*
D10*
X83840225Y-56050828D02*
X84125939Y-56050828D01*
X84125939Y-56050828D02*
X84268796Y-56122257D01*
X84268796Y-56122257D02*
X84411653Y-56265114D01*
X84411653Y-56265114D02*
X84483082Y-56550828D01*
X84483082Y-56550828D02*
X84483082Y-57050828D01*
X84483082Y-57050828D02*
X84411653Y-57336542D01*
X84411653Y-57336542D02*
X84268796Y-57479400D01*
X84268796Y-57479400D02*
X84125939Y-57550828D01*
X84125939Y-57550828D02*
X83840225Y-57550828D01*
X83840225Y-57550828D02*
X83697368Y-57479400D01*
X83697368Y-57479400D02*
X83554510Y-57336542D01*
X83554510Y-57336542D02*
X83483082Y-57050828D01*
X83483082Y-57050828D02*
X83483082Y-56550828D01*
X83483082Y-56550828D02*
X83554510Y-56265114D01*
X83554510Y-56265114D02*
X83697368Y-56122257D01*
X83697368Y-56122257D02*
X83840225Y-56050828D01*
X85125939Y-57550828D02*
X85125939Y-56050828D01*
X85125939Y-56050828D02*
X85983082Y-57550828D01*
X85983082Y-57550828D02*
X85983082Y-56050828D01*
X82802632Y-47520600D02*
X82945489Y-47449171D01*
X82945489Y-47449171D02*
X83231203Y-47449171D01*
X83231203Y-47449171D02*
X83374060Y-47520600D01*
X83374060Y-47520600D02*
X83445489Y-47592028D01*
X83445489Y-47592028D02*
X83516917Y-47734885D01*
X83516917Y-47734885D02*
X83516917Y-48163457D01*
X83516917Y-48163457D02*
X83445489Y-48306314D01*
X83445489Y-48306314D02*
X83374060Y-48377742D01*
X83374060Y-48377742D02*
X83231203Y-48449171D01*
X83231203Y-48449171D02*
X82945489Y-48449171D01*
X82945489Y-48449171D02*
X82802632Y-48377742D01*
X81516918Y-47449171D02*
X81516918Y-48234885D01*
X81516918Y-48234885D02*
X81588346Y-48377742D01*
X81588346Y-48377742D02*
X81731203Y-48449171D01*
X81731203Y-48449171D02*
X82016918Y-48449171D01*
X82016918Y-48449171D02*
X82159775Y-48377742D01*
X81516918Y-47520600D02*
X81659775Y-47449171D01*
X81659775Y-47449171D02*
X82016918Y-47449171D01*
X82016918Y-47449171D02*
X82159775Y-47520600D01*
X82159775Y-47520600D02*
X82231203Y-47663457D01*
X82231203Y-47663457D02*
X82231203Y-47806314D01*
X82231203Y-47806314D02*
X82159775Y-47949171D01*
X82159775Y-47949171D02*
X82016918Y-48020600D01*
X82016918Y-48020600D02*
X81659775Y-48020600D01*
X81659775Y-48020600D02*
X81516918Y-48092028D01*
X80802632Y-48449171D02*
X80802632Y-47449171D01*
X80802632Y-48306314D02*
X80731203Y-48377742D01*
X80731203Y-48377742D02*
X80588346Y-48449171D01*
X80588346Y-48449171D02*
X80374060Y-48449171D01*
X80374060Y-48449171D02*
X80231203Y-48377742D01*
X80231203Y-48377742D02*
X80159775Y-48234885D01*
X80159775Y-48234885D02*
X80159775Y-47449171D01*
X79445489Y-47449171D02*
X79445489Y-48949171D01*
X78802632Y-47449171D02*
X78802632Y-48234885D01*
X78802632Y-48234885D02*
X78874060Y-48377742D01*
X78874060Y-48377742D02*
X79016917Y-48449171D01*
X79016917Y-48449171D02*
X79231203Y-48449171D01*
X79231203Y-48449171D02*
X79374060Y-48377742D01*
X79374060Y-48377742D02*
X79445489Y-48306314D01*
X161447368Y-133729400D02*
X161304510Y-133800828D01*
X161304510Y-133800828D02*
X161018796Y-133800828D01*
X161018796Y-133800828D02*
X160875939Y-133729400D01*
X160875939Y-133729400D02*
X160804510Y-133657971D01*
X160804510Y-133657971D02*
X160733082Y-133515114D01*
X160733082Y-133515114D02*
X160733082Y-133086542D01*
X160733082Y-133086542D02*
X160804510Y-132943685D01*
X160804510Y-132943685D02*
X160875939Y-132872257D01*
X160875939Y-132872257D02*
X161018796Y-132800828D01*
X161018796Y-132800828D02*
X161304510Y-132800828D01*
X161304510Y-132800828D02*
X161447368Y-132872257D01*
X162733082Y-133800828D02*
X162733082Y-133015114D01*
X162733082Y-133015114D02*
X162661653Y-132872257D01*
X162661653Y-132872257D02*
X162518796Y-132800828D01*
X162518796Y-132800828D02*
X162233082Y-132800828D01*
X162233082Y-132800828D02*
X162090224Y-132872257D01*
X162733082Y-133729400D02*
X162590224Y-133800828D01*
X162590224Y-133800828D02*
X162233082Y-133800828D01*
X162233082Y-133800828D02*
X162090224Y-133729400D01*
X162090224Y-133729400D02*
X162018796Y-133586542D01*
X162018796Y-133586542D02*
X162018796Y-133443685D01*
X162018796Y-133443685D02*
X162090224Y-133300828D01*
X162090224Y-133300828D02*
X162233082Y-133229400D01*
X162233082Y-133229400D02*
X162590224Y-133229400D01*
X162590224Y-133229400D02*
X162733082Y-133157971D01*
X163447367Y-132800828D02*
X163447367Y-133800828D01*
X163447367Y-132943685D02*
X163518796Y-132872257D01*
X163518796Y-132872257D02*
X163661653Y-132800828D01*
X163661653Y-132800828D02*
X163875939Y-132800828D01*
X163875939Y-132800828D02*
X164018796Y-132872257D01*
X164018796Y-132872257D02*
X164090225Y-133015114D01*
X164090225Y-133015114D02*
X164090225Y-133800828D01*
X164804510Y-133800828D02*
X164804510Y-132300828D01*
X165447368Y-133800828D02*
X165447368Y-133015114D01*
X165447368Y-133015114D02*
X165375939Y-132872257D01*
X165375939Y-132872257D02*
X165233082Y-132800828D01*
X165233082Y-132800828D02*
X165018796Y-132800828D01*
X165018796Y-132800828D02*
X164875939Y-132872257D01*
X164875939Y-132872257D02*
X164804510Y-132943685D01*
X101197368Y-129729400D02*
X101054510Y-129800828D01*
X101054510Y-129800828D02*
X100768796Y-129800828D01*
X100768796Y-129800828D02*
X100625939Y-129729400D01*
X100625939Y-129729400D02*
X100554510Y-129657971D01*
X100554510Y-129657971D02*
X100483082Y-129515114D01*
X100483082Y-129515114D02*
X100483082Y-129086542D01*
X100483082Y-129086542D02*
X100554510Y-128943685D01*
X100554510Y-128943685D02*
X100625939Y-128872257D01*
X100625939Y-128872257D02*
X100768796Y-128800828D01*
X100768796Y-128800828D02*
X101054510Y-128800828D01*
X101054510Y-128800828D02*
X101197368Y-128872257D01*
X102483082Y-129800828D02*
X102483082Y-129015114D01*
X102483082Y-129015114D02*
X102411653Y-128872257D01*
X102411653Y-128872257D02*
X102268796Y-128800828D01*
X102268796Y-128800828D02*
X101983082Y-128800828D01*
X101983082Y-128800828D02*
X101840224Y-128872257D01*
X102483082Y-129729400D02*
X102340224Y-129800828D01*
X102340224Y-129800828D02*
X101983082Y-129800828D01*
X101983082Y-129800828D02*
X101840224Y-129729400D01*
X101840224Y-129729400D02*
X101768796Y-129586542D01*
X101768796Y-129586542D02*
X101768796Y-129443685D01*
X101768796Y-129443685D02*
X101840224Y-129300828D01*
X101840224Y-129300828D02*
X101983082Y-129229400D01*
X101983082Y-129229400D02*
X102340224Y-129229400D01*
X102340224Y-129229400D02*
X102483082Y-129157971D01*
X103197367Y-128800828D02*
X103197367Y-129800828D01*
X103197367Y-128943685D02*
X103268796Y-128872257D01*
X103268796Y-128872257D02*
X103411653Y-128800828D01*
X103411653Y-128800828D02*
X103625939Y-128800828D01*
X103625939Y-128800828D02*
X103768796Y-128872257D01*
X103768796Y-128872257D02*
X103840225Y-129015114D01*
X103840225Y-129015114D02*
X103840225Y-129800828D01*
X104554510Y-129800828D02*
X104554510Y-128300828D01*
X105197368Y-129800828D02*
X105197368Y-129015114D01*
X105197368Y-129015114D02*
X105125939Y-128872257D01*
X105125939Y-128872257D02*
X104983082Y-128800828D01*
X104983082Y-128800828D02*
X104768796Y-128800828D01*
X104768796Y-128800828D02*
X104625939Y-128872257D01*
X104625939Y-128872257D02*
X104554510Y-128943685D01*
X195197368Y-132729400D02*
X195054510Y-132800828D01*
X195054510Y-132800828D02*
X194768796Y-132800828D01*
X194768796Y-132800828D02*
X194625939Y-132729400D01*
X194625939Y-132729400D02*
X194554510Y-132657971D01*
X194554510Y-132657971D02*
X194483082Y-132515114D01*
X194483082Y-132515114D02*
X194483082Y-132086542D01*
X194483082Y-132086542D02*
X194554510Y-131943685D01*
X194554510Y-131943685D02*
X194625939Y-131872257D01*
X194625939Y-131872257D02*
X194768796Y-131800828D01*
X194768796Y-131800828D02*
X195054510Y-131800828D01*
X195054510Y-131800828D02*
X195197368Y-131872257D01*
X196483082Y-132800828D02*
X196483082Y-132015114D01*
X196483082Y-132015114D02*
X196411653Y-131872257D01*
X196411653Y-131872257D02*
X196268796Y-131800828D01*
X196268796Y-131800828D02*
X195983082Y-131800828D01*
X195983082Y-131800828D02*
X195840224Y-131872257D01*
X196483082Y-132729400D02*
X196340224Y-132800828D01*
X196340224Y-132800828D02*
X195983082Y-132800828D01*
X195983082Y-132800828D02*
X195840224Y-132729400D01*
X195840224Y-132729400D02*
X195768796Y-132586542D01*
X195768796Y-132586542D02*
X195768796Y-132443685D01*
X195768796Y-132443685D02*
X195840224Y-132300828D01*
X195840224Y-132300828D02*
X195983082Y-132229400D01*
X195983082Y-132229400D02*
X196340224Y-132229400D01*
X196340224Y-132229400D02*
X196483082Y-132157971D01*
X197197367Y-131800828D02*
X197197367Y-132800828D01*
X197197367Y-131943685D02*
X197268796Y-131872257D01*
X197268796Y-131872257D02*
X197411653Y-131800828D01*
X197411653Y-131800828D02*
X197625939Y-131800828D01*
X197625939Y-131800828D02*
X197768796Y-131872257D01*
X197768796Y-131872257D02*
X197840225Y-132015114D01*
X197840225Y-132015114D02*
X197840225Y-132800828D01*
X198554510Y-132800828D02*
X198554510Y-131300828D01*
X199197368Y-132800828D02*
X199197368Y-132015114D01*
X199197368Y-132015114D02*
X199125939Y-131872257D01*
X199125939Y-131872257D02*
X198983082Y-131800828D01*
X198983082Y-131800828D02*
X198768796Y-131800828D01*
X198768796Y-131800828D02*
X198625939Y-131872257D01*
X198625939Y-131872257D02*
X198554510Y-131943685D01*
X197340225Y-103050828D02*
X197625939Y-103050828D01*
X197625939Y-103050828D02*
X197768796Y-103122257D01*
X197768796Y-103122257D02*
X197911653Y-103265114D01*
X197911653Y-103265114D02*
X197983082Y-103550828D01*
X197983082Y-103550828D02*
X197983082Y-104050828D01*
X197983082Y-104050828D02*
X197911653Y-104336542D01*
X197911653Y-104336542D02*
X197768796Y-104479400D01*
X197768796Y-104479400D02*
X197625939Y-104550828D01*
X197625939Y-104550828D02*
X197340225Y-104550828D01*
X197340225Y-104550828D02*
X197197368Y-104479400D01*
X197197368Y-104479400D02*
X197054510Y-104336542D01*
X197054510Y-104336542D02*
X196983082Y-104050828D01*
X196983082Y-104050828D02*
X196983082Y-103550828D01*
X196983082Y-103550828D02*
X197054510Y-103265114D01*
X197054510Y-103265114D02*
X197197368Y-103122257D01*
X197197368Y-103122257D02*
X197340225Y-103050828D01*
X198625939Y-104550828D02*
X198625939Y-103050828D01*
X198625939Y-103050828D02*
X199483082Y-104550828D01*
X199483082Y-104550828D02*
X199483082Y-103050828D01*
D11*
X106810112Y-66486009D02*
X106952969Y-66533628D01*
X106952969Y-66533628D02*
X107000588Y-66581247D01*
X107000588Y-66581247D02*
X107048207Y-66676485D01*
X107048207Y-66676485D02*
X107048207Y-66819342D01*
X107048207Y-66819342D02*
X107000588Y-66914580D01*
X107000588Y-66914580D02*
X106952969Y-66962200D01*
X106952969Y-66962200D02*
X106857731Y-67009819D01*
X106857731Y-67009819D02*
X106476779Y-67009819D01*
X106476779Y-67009819D02*
X106476779Y-66009819D01*
X106476779Y-66009819D02*
X106810112Y-66009819D01*
X106810112Y-66009819D02*
X106905350Y-66057438D01*
X106905350Y-66057438D02*
X106952969Y-66105057D01*
X106952969Y-66105057D02*
X107000588Y-66200295D01*
X107000588Y-66200295D02*
X107000588Y-66295533D01*
X107000588Y-66295533D02*
X106952969Y-66390771D01*
X106952969Y-66390771D02*
X106905350Y-66438390D01*
X106905350Y-66438390D02*
X106810112Y-66486009D01*
X106810112Y-66486009D02*
X106476779Y-66486009D01*
X107905350Y-67009819D02*
X107905350Y-66486009D01*
X107905350Y-66486009D02*
X107857731Y-66390771D01*
X107857731Y-66390771D02*
X107762493Y-66343152D01*
X107762493Y-66343152D02*
X107572017Y-66343152D01*
X107572017Y-66343152D02*
X107476779Y-66390771D01*
X107905350Y-66962200D02*
X107810112Y-67009819D01*
X107810112Y-67009819D02*
X107572017Y-67009819D01*
X107572017Y-67009819D02*
X107476779Y-66962200D01*
X107476779Y-66962200D02*
X107429160Y-66866961D01*
X107429160Y-66866961D02*
X107429160Y-66771723D01*
X107429160Y-66771723D02*
X107476779Y-66676485D01*
X107476779Y-66676485D02*
X107572017Y-66628866D01*
X107572017Y-66628866D02*
X107810112Y-66628866D01*
X107810112Y-66628866D02*
X107905350Y-66581247D01*
X108810112Y-66962200D02*
X108714874Y-67009819D01*
X108714874Y-67009819D02*
X108524398Y-67009819D01*
X108524398Y-67009819D02*
X108429160Y-66962200D01*
X108429160Y-66962200D02*
X108381541Y-66914580D01*
X108381541Y-66914580D02*
X108333922Y-66819342D01*
X108333922Y-66819342D02*
X108333922Y-66533628D01*
X108333922Y-66533628D02*
X108381541Y-66438390D01*
X108381541Y-66438390D02*
X108429160Y-66390771D01*
X108429160Y-66390771D02*
X108524398Y-66343152D01*
X108524398Y-66343152D02*
X108714874Y-66343152D01*
X108714874Y-66343152D02*
X108810112Y-66390771D01*
X109238684Y-67009819D02*
X109238684Y-66009819D01*
X109333922Y-66628866D02*
X109619636Y-67009819D01*
X109619636Y-66343152D02*
X109238684Y-66724104D01*
D10*
X194479400Y-89802632D02*
X194550828Y-89945489D01*
X194550828Y-89945489D02*
X194550828Y-90231203D01*
X194550828Y-90231203D02*
X194479400Y-90374060D01*
X194479400Y-90374060D02*
X194407971Y-90445489D01*
X194407971Y-90445489D02*
X194265114Y-90516917D01*
X194265114Y-90516917D02*
X193836542Y-90516917D01*
X193836542Y-90516917D02*
X193693685Y-90445489D01*
X193693685Y-90445489D02*
X193622257Y-90374060D01*
X193622257Y-90374060D02*
X193550828Y-90231203D01*
X193550828Y-90231203D02*
X193550828Y-89945489D01*
X193550828Y-89945489D02*
X193622257Y-89802632D01*
X194550828Y-88516918D02*
X193765114Y-88516918D01*
X193765114Y-88516918D02*
X193622257Y-88588346D01*
X193622257Y-88588346D02*
X193550828Y-88731203D01*
X193550828Y-88731203D02*
X193550828Y-89016918D01*
X193550828Y-89016918D02*
X193622257Y-89159775D01*
X194479400Y-88516918D02*
X194550828Y-88659775D01*
X194550828Y-88659775D02*
X194550828Y-89016918D01*
X194550828Y-89016918D02*
X194479400Y-89159775D01*
X194479400Y-89159775D02*
X194336542Y-89231203D01*
X194336542Y-89231203D02*
X194193685Y-89231203D01*
X194193685Y-89231203D02*
X194050828Y-89159775D01*
X194050828Y-89159775D02*
X193979400Y-89016918D01*
X193979400Y-89016918D02*
X193979400Y-88659775D01*
X193979400Y-88659775D02*
X193907971Y-88516918D01*
X193550828Y-87802632D02*
X194550828Y-87802632D01*
X193693685Y-87802632D02*
X193622257Y-87731203D01*
X193622257Y-87731203D02*
X193550828Y-87588346D01*
X193550828Y-87588346D02*
X193550828Y-87374060D01*
X193550828Y-87374060D02*
X193622257Y-87231203D01*
X193622257Y-87231203D02*
X193765114Y-87159775D01*
X193765114Y-87159775D02*
X194550828Y-87159775D01*
X194550828Y-86445489D02*
X193050828Y-86445489D01*
X194550828Y-85802632D02*
X193765114Y-85802632D01*
X193765114Y-85802632D02*
X193622257Y-85874060D01*
X193622257Y-85874060D02*
X193550828Y-86016917D01*
X193550828Y-86016917D02*
X193550828Y-86231203D01*
X193550828Y-86231203D02*
X193622257Y-86374060D01*
X193622257Y-86374060D02*
X193693685Y-86445489D01*
X76550828Y-136909774D02*
X76550828Y-136624060D01*
X76550828Y-136624060D02*
X76622257Y-136481203D01*
X76622257Y-136481203D02*
X76765114Y-136338346D01*
X76765114Y-136338346D02*
X77050828Y-136266917D01*
X77050828Y-136266917D02*
X77550828Y-136266917D01*
X77550828Y-136266917D02*
X77836542Y-136338346D01*
X77836542Y-136338346D02*
X77979400Y-136481203D01*
X77979400Y-136481203D02*
X78050828Y-136624060D01*
X78050828Y-136624060D02*
X78050828Y-136909774D01*
X78050828Y-136909774D02*
X77979400Y-137052632D01*
X77979400Y-137052632D02*
X77836542Y-137195489D01*
X77836542Y-137195489D02*
X77550828Y-137266917D01*
X77550828Y-137266917D02*
X77050828Y-137266917D01*
X77050828Y-137266917D02*
X76765114Y-137195489D01*
X76765114Y-137195489D02*
X76622257Y-137052632D01*
X76622257Y-137052632D02*
X76550828Y-136909774D01*
X78050828Y-135624060D02*
X76550828Y-135624060D01*
X76550828Y-135624060D02*
X78050828Y-134766917D01*
X78050828Y-134766917D02*
X76550828Y-134766917D01*
D11*
X197639942Y-57963619D02*
X197306609Y-57487428D01*
X197068514Y-57963619D02*
X197068514Y-56963619D01*
X197068514Y-56963619D02*
X197449466Y-56963619D01*
X197449466Y-56963619D02*
X197544704Y-57011238D01*
X197544704Y-57011238D02*
X197592323Y-57058857D01*
X197592323Y-57058857D02*
X197639942Y-57154095D01*
X197639942Y-57154095D02*
X197639942Y-57296952D01*
X197639942Y-57296952D02*
X197592323Y-57392190D01*
X197592323Y-57392190D02*
X197544704Y-57439809D01*
X197544704Y-57439809D02*
X197449466Y-57487428D01*
X197449466Y-57487428D02*
X197068514Y-57487428D01*
X198592323Y-57963619D02*
X198020895Y-57963619D01*
X198306609Y-57963619D02*
X198306609Y-56963619D01*
X198306609Y-56963619D02*
X198211371Y-57106476D01*
X198211371Y-57106476D02*
X198116133Y-57201714D01*
X198116133Y-57201714D02*
X198020895Y-57249333D01*
X199544704Y-57963619D02*
X198973276Y-57963619D01*
X199258990Y-57963619D02*
X199258990Y-56963619D01*
X199258990Y-56963619D02*
X199163752Y-57106476D01*
X199163752Y-57106476D02*
X199068514Y-57201714D01*
X199068514Y-57201714D02*
X198973276Y-57249333D01*
X83858719Y-53649994D02*
X84668242Y-53649994D01*
X84668242Y-53649994D02*
X84763480Y-53602375D01*
X84763480Y-53602375D02*
X84811100Y-53554756D01*
X84811100Y-53554756D02*
X84858719Y-53459518D01*
X84858719Y-53459518D02*
X84858719Y-53269042D01*
X84858719Y-53269042D02*
X84811100Y-53173804D01*
X84811100Y-53173804D02*
X84763480Y-53126185D01*
X84763480Y-53126185D02*
X84668242Y-53078566D01*
X84668242Y-53078566D02*
X83858719Y-53078566D01*
X84858719Y-52078566D02*
X84858719Y-52649994D01*
X84858719Y-52364280D02*
X83858719Y-52364280D01*
X83858719Y-52364280D02*
X84001576Y-52459518D01*
X84001576Y-52459518D02*
X84096814Y-52554756D01*
X84096814Y-52554756D02*
X84144433Y-52649994D01*
X84287290Y-51507137D02*
X84239671Y-51602375D01*
X84239671Y-51602375D02*
X84192052Y-51649994D01*
X84192052Y-51649994D02*
X84096814Y-51697613D01*
X84096814Y-51697613D02*
X84049195Y-51697613D01*
X84049195Y-51697613D02*
X83953957Y-51649994D01*
X83953957Y-51649994D02*
X83906338Y-51602375D01*
X83906338Y-51602375D02*
X83858719Y-51507137D01*
X83858719Y-51507137D02*
X83858719Y-51316661D01*
X83858719Y-51316661D02*
X83906338Y-51221423D01*
X83906338Y-51221423D02*
X83953957Y-51173804D01*
X83953957Y-51173804D02*
X84049195Y-51126185D01*
X84049195Y-51126185D02*
X84096814Y-51126185D01*
X84096814Y-51126185D02*
X84192052Y-51173804D01*
X84192052Y-51173804D02*
X84239671Y-51221423D01*
X84239671Y-51221423D02*
X84287290Y-51316661D01*
X84287290Y-51316661D02*
X84287290Y-51507137D01*
X84287290Y-51507137D02*
X84334909Y-51602375D01*
X84334909Y-51602375D02*
X84382528Y-51649994D01*
X84382528Y-51649994D02*
X84477766Y-51697613D01*
X84477766Y-51697613D02*
X84668242Y-51697613D01*
X84668242Y-51697613D02*
X84763480Y-51649994D01*
X84763480Y-51649994D02*
X84811100Y-51602375D01*
X84811100Y-51602375D02*
X84858719Y-51507137D01*
X84858719Y-51507137D02*
X84858719Y-51316661D01*
X84858719Y-51316661D02*
X84811100Y-51221423D01*
X84811100Y-51221423D02*
X84763480Y-51173804D01*
X84763480Y-51173804D02*
X84668242Y-51126185D01*
X84668242Y-51126185D02*
X84477766Y-51126185D01*
X84477766Y-51126185D02*
X84382528Y-51173804D01*
X84382528Y-51173804D02*
X84334909Y-51221423D01*
X84334909Y-51221423D02*
X84287290Y-51316661D01*
X97698980Y-96223057D02*
X97746600Y-96270676D01*
X97746600Y-96270676D02*
X97794219Y-96413533D01*
X97794219Y-96413533D02*
X97794219Y-96508771D01*
X97794219Y-96508771D02*
X97746600Y-96651628D01*
X97746600Y-96651628D02*
X97651361Y-96746866D01*
X97651361Y-96746866D02*
X97556123Y-96794485D01*
X97556123Y-96794485D02*
X97365647Y-96842104D01*
X97365647Y-96842104D02*
X97222790Y-96842104D01*
X97222790Y-96842104D02*
X97032314Y-96794485D01*
X97032314Y-96794485D02*
X96937076Y-96746866D01*
X96937076Y-96746866D02*
X96841838Y-96651628D01*
X96841838Y-96651628D02*
X96794219Y-96508771D01*
X96794219Y-96508771D02*
X96794219Y-96413533D01*
X96794219Y-96413533D02*
X96841838Y-96270676D01*
X96841838Y-96270676D02*
X96889457Y-96223057D01*
X96794219Y-95889723D02*
X96794219Y-95270676D01*
X96794219Y-95270676D02*
X97175171Y-95604009D01*
X97175171Y-95604009D02*
X97175171Y-95461152D01*
X97175171Y-95461152D02*
X97222790Y-95365914D01*
X97222790Y-95365914D02*
X97270409Y-95318295D01*
X97270409Y-95318295D02*
X97365647Y-95270676D01*
X97365647Y-95270676D02*
X97603742Y-95270676D01*
X97603742Y-95270676D02*
X97698980Y-95318295D01*
X97698980Y-95318295D02*
X97746600Y-95365914D01*
X97746600Y-95365914D02*
X97794219Y-95461152D01*
X97794219Y-95461152D02*
X97794219Y-95746866D01*
X97794219Y-95746866D02*
X97746600Y-95842104D01*
X97746600Y-95842104D02*
X97698980Y-95889723D01*
X97127552Y-94413533D02*
X97794219Y-94413533D01*
X96746600Y-94651628D02*
X97460885Y-94889723D01*
X97460885Y-94889723D02*
X97460885Y-94270676D01*
X121595267Y-133174066D02*
X121595267Y-134174066D01*
X121595267Y-134174066D02*
X121528600Y-134374066D01*
X121528600Y-134374066D02*
X121395267Y-134507400D01*
X121395267Y-134507400D02*
X121195267Y-134574066D01*
X121195267Y-134574066D02*
X121061934Y-134574066D01*
X122995267Y-134574066D02*
X122195267Y-134574066D01*
X122595267Y-134574066D02*
X122595267Y-133174066D01*
X122595267Y-133174066D02*
X122461934Y-133374066D01*
X122461934Y-133374066D02*
X122328601Y-133507400D01*
X122328601Y-133507400D02*
X122195267Y-133574066D01*
X123861934Y-133174066D02*
X123995267Y-133174066D01*
X123995267Y-133174066D02*
X124128600Y-133240733D01*
X124128600Y-133240733D02*
X124195267Y-133307400D01*
X124195267Y-133307400D02*
X124261934Y-133440733D01*
X124261934Y-133440733D02*
X124328600Y-133707400D01*
X124328600Y-133707400D02*
X124328600Y-134040733D01*
X124328600Y-134040733D02*
X124261934Y-134307400D01*
X124261934Y-134307400D02*
X124195267Y-134440733D01*
X124195267Y-134440733D02*
X124128600Y-134507400D01*
X124128600Y-134507400D02*
X123995267Y-134574066D01*
X123995267Y-134574066D02*
X123861934Y-134574066D01*
X123861934Y-134574066D02*
X123728600Y-134507400D01*
X123728600Y-134507400D02*
X123661934Y-134440733D01*
X123661934Y-134440733D02*
X123595267Y-134307400D01*
X123595267Y-134307400D02*
X123528600Y-134040733D01*
X123528600Y-134040733D02*
X123528600Y-133707400D01*
X123528600Y-133707400D02*
X123595267Y-133440733D01*
X123595267Y-133440733D02*
X123661934Y-133307400D01*
X123661934Y-133307400D02*
X123728600Y-133240733D01*
X123728600Y-133240733D02*
X123861934Y-133174066D01*
X169862454Y-100665380D02*
X169862454Y-99855857D01*
X169862454Y-99855857D02*
X169814835Y-99760619D01*
X169814835Y-99760619D02*
X169767216Y-99713000D01*
X169767216Y-99713000D02*
X169671978Y-99665380D01*
X169671978Y-99665380D02*
X169481502Y-99665380D01*
X169481502Y-99665380D02*
X169386264Y-99713000D01*
X169386264Y-99713000D02*
X169338645Y-99760619D01*
X169338645Y-99760619D02*
X169291026Y-99855857D01*
X169291026Y-99855857D02*
X169291026Y-100665380D01*
X168910073Y-100665380D02*
X168243407Y-100665380D01*
X168243407Y-100665380D02*
X168671978Y-99665380D01*
X97794219Y-93175057D02*
X97318028Y-93508390D01*
X97794219Y-93746485D02*
X96794219Y-93746485D01*
X96794219Y-93746485D02*
X96794219Y-93365533D01*
X96794219Y-93365533D02*
X96841838Y-93270295D01*
X96841838Y-93270295D02*
X96889457Y-93222676D01*
X96889457Y-93222676D02*
X96984695Y-93175057D01*
X96984695Y-93175057D02*
X97127552Y-93175057D01*
X97127552Y-93175057D02*
X97222790Y-93222676D01*
X97222790Y-93222676D02*
X97270409Y-93270295D01*
X97270409Y-93270295D02*
X97318028Y-93365533D01*
X97318028Y-93365533D02*
X97318028Y-93746485D01*
X97794219Y-92222676D02*
X97794219Y-92794104D01*
X97794219Y-92508390D02*
X96794219Y-92508390D01*
X96794219Y-92508390D02*
X96937076Y-92603628D01*
X96937076Y-92603628D02*
X97032314Y-92698866D01*
X97032314Y-92698866D02*
X97079933Y-92794104D01*
X96794219Y-91603628D02*
X96794219Y-91508390D01*
X96794219Y-91508390D02*
X96841838Y-91413152D01*
X96841838Y-91413152D02*
X96889457Y-91365533D01*
X96889457Y-91365533D02*
X96984695Y-91317914D01*
X96984695Y-91317914D02*
X97175171Y-91270295D01*
X97175171Y-91270295D02*
X97413266Y-91270295D01*
X97413266Y-91270295D02*
X97603742Y-91317914D01*
X97603742Y-91317914D02*
X97698980Y-91365533D01*
X97698980Y-91365533D02*
X97746600Y-91413152D01*
X97746600Y-91413152D02*
X97794219Y-91508390D01*
X97794219Y-91508390D02*
X97794219Y-91603628D01*
X97794219Y-91603628D02*
X97746600Y-91698866D01*
X97746600Y-91698866D02*
X97698980Y-91746485D01*
X97698980Y-91746485D02*
X97603742Y-91794104D01*
X97603742Y-91794104D02*
X97413266Y-91841723D01*
X97413266Y-91841723D02*
X97175171Y-91841723D01*
X97175171Y-91841723D02*
X96984695Y-91794104D01*
X96984695Y-91794104D02*
X96889457Y-91746485D01*
X96889457Y-91746485D02*
X96841838Y-91698866D01*
X96841838Y-91698866D02*
X96794219Y-91603628D01*
X147127866Y-142738332D02*
X148127866Y-142738332D01*
X148127866Y-142738332D02*
X148327866Y-142804999D01*
X148327866Y-142804999D02*
X148461200Y-142938332D01*
X148461200Y-142938332D02*
X148527866Y-143138332D01*
X148527866Y-143138332D02*
X148527866Y-143271666D01*
X148527866Y-141338332D02*
X148527866Y-142138332D01*
X148527866Y-141738332D02*
X147127866Y-141738332D01*
X147127866Y-141738332D02*
X147327866Y-141871665D01*
X147327866Y-141871665D02*
X147461200Y-142004999D01*
X147461200Y-142004999D02*
X147527866Y-142138332D01*
X148527866Y-140004999D02*
X148527866Y-140804999D01*
X148527866Y-140404999D02*
X147127866Y-140404999D01*
X147127866Y-140404999D02*
X147327866Y-140538332D01*
X147327866Y-140538332D02*
X147461200Y-140671666D01*
X147461200Y-140671666D02*
X147527866Y-140804999D01*
X94989933Y-63182934D02*
X94656600Y-62706743D01*
X94418505Y-63182934D02*
X94418505Y-62182934D01*
X94418505Y-62182934D02*
X94799457Y-62182934D01*
X94799457Y-62182934D02*
X94894695Y-62230553D01*
X94894695Y-62230553D02*
X94942314Y-62278172D01*
X94942314Y-62278172D02*
X94989933Y-62373410D01*
X94989933Y-62373410D02*
X94989933Y-62516267D01*
X94989933Y-62516267D02*
X94942314Y-62611505D01*
X94942314Y-62611505D02*
X94894695Y-62659124D01*
X94894695Y-62659124D02*
X94799457Y-62706743D01*
X94799457Y-62706743D02*
X94418505Y-62706743D01*
X95323267Y-62182934D02*
X95942314Y-62182934D01*
X95942314Y-62182934D02*
X95608981Y-62563886D01*
X95608981Y-62563886D02*
X95751838Y-62563886D01*
X95751838Y-62563886D02*
X95847076Y-62611505D01*
X95847076Y-62611505D02*
X95894695Y-62659124D01*
X95894695Y-62659124D02*
X95942314Y-62754362D01*
X95942314Y-62754362D02*
X95942314Y-62992457D01*
X95942314Y-62992457D02*
X95894695Y-63087695D01*
X95894695Y-63087695D02*
X95847076Y-63135315D01*
X95847076Y-63135315D02*
X95751838Y-63182934D01*
X95751838Y-63182934D02*
X95466124Y-63182934D01*
X95466124Y-63182934D02*
X95370886Y-63135315D01*
X95370886Y-63135315D02*
X95323267Y-63087695D01*
X130093505Y-116592019D02*
X130093505Y-117401542D01*
X130093505Y-117401542D02*
X130141124Y-117496780D01*
X130141124Y-117496780D02*
X130188743Y-117544400D01*
X130188743Y-117544400D02*
X130283981Y-117592019D01*
X130283981Y-117592019D02*
X130474457Y-117592019D01*
X130474457Y-117592019D02*
X130569695Y-117544400D01*
X130569695Y-117544400D02*
X130617314Y-117496780D01*
X130617314Y-117496780D02*
X130664933Y-117401542D01*
X130664933Y-117401542D02*
X130664933Y-116592019D01*
X131093505Y-116687257D02*
X131141124Y-116639638D01*
X131141124Y-116639638D02*
X131236362Y-116592019D01*
X131236362Y-116592019D02*
X131474457Y-116592019D01*
X131474457Y-116592019D02*
X131569695Y-116639638D01*
X131569695Y-116639638D02*
X131617314Y-116687257D01*
X131617314Y-116687257D02*
X131664933Y-116782495D01*
X131664933Y-116782495D02*
X131664933Y-116877733D01*
X131664933Y-116877733D02*
X131617314Y-117020590D01*
X131617314Y-117020590D02*
X131045886Y-117592019D01*
X131045886Y-117592019D02*
X131664933Y-117592019D01*
X131998267Y-116592019D02*
X132617314Y-116592019D01*
X132617314Y-116592019D02*
X132283981Y-116972971D01*
X132283981Y-116972971D02*
X132426838Y-116972971D01*
X132426838Y-116972971D02*
X132522076Y-117020590D01*
X132522076Y-117020590D02*
X132569695Y-117068209D01*
X132569695Y-117068209D02*
X132617314Y-117163447D01*
X132617314Y-117163447D02*
X132617314Y-117401542D01*
X132617314Y-117401542D02*
X132569695Y-117496780D01*
X132569695Y-117496780D02*
X132522076Y-117544400D01*
X132522076Y-117544400D02*
X132426838Y-117592019D01*
X132426838Y-117592019D02*
X132141124Y-117592019D01*
X132141124Y-117592019D02*
X132045886Y-117544400D01*
X132045886Y-117544400D02*
X131998267Y-117496780D01*
X107847755Y-73354819D02*
X107847755Y-74164342D01*
X107847755Y-74164342D02*
X107895374Y-74259580D01*
X107895374Y-74259580D02*
X107942993Y-74307200D01*
X107942993Y-74307200D02*
X108038231Y-74354819D01*
X108038231Y-74354819D02*
X108228707Y-74354819D01*
X108228707Y-74354819D02*
X108323945Y-74307200D01*
X108323945Y-74307200D02*
X108371564Y-74259580D01*
X108371564Y-74259580D02*
X108419183Y-74164342D01*
X108419183Y-74164342D02*
X108419183Y-73354819D01*
X109419183Y-74354819D02*
X108847755Y-74354819D01*
X109133469Y-74354819D02*
X109133469Y-73354819D01*
X109133469Y-73354819D02*
X109038231Y-73497676D01*
X109038231Y-73497676D02*
X108942993Y-73592914D01*
X108942993Y-73592914D02*
X108847755Y-73640533D01*
X109752517Y-73354819D02*
X110371564Y-73354819D01*
X110371564Y-73354819D02*
X110038231Y-73735771D01*
X110038231Y-73735771D02*
X110181088Y-73735771D01*
X110181088Y-73735771D02*
X110276326Y-73783390D01*
X110276326Y-73783390D02*
X110323945Y-73831009D01*
X110323945Y-73831009D02*
X110371564Y-73926247D01*
X110371564Y-73926247D02*
X110371564Y-74164342D01*
X110371564Y-74164342D02*
X110323945Y-74259580D01*
X110323945Y-74259580D02*
X110276326Y-74307200D01*
X110276326Y-74307200D02*
X110181088Y-74354819D01*
X110181088Y-74354819D02*
X109895374Y-74354819D01*
X109895374Y-74354819D02*
X109800136Y-74307200D01*
X109800136Y-74307200D02*
X109752517Y-74259580D01*
X114198180Y-124925057D02*
X114245800Y-124972676D01*
X114245800Y-124972676D02*
X114293419Y-125115533D01*
X114293419Y-125115533D02*
X114293419Y-125210771D01*
X114293419Y-125210771D02*
X114245800Y-125353628D01*
X114245800Y-125353628D02*
X114150561Y-125448866D01*
X114150561Y-125448866D02*
X114055323Y-125496485D01*
X114055323Y-125496485D02*
X113864847Y-125544104D01*
X113864847Y-125544104D02*
X113721990Y-125544104D01*
X113721990Y-125544104D02*
X113531514Y-125496485D01*
X113531514Y-125496485D02*
X113436276Y-125448866D01*
X113436276Y-125448866D02*
X113341038Y-125353628D01*
X113341038Y-125353628D02*
X113293419Y-125210771D01*
X113293419Y-125210771D02*
X113293419Y-125115533D01*
X113293419Y-125115533D02*
X113341038Y-124972676D01*
X113341038Y-124972676D02*
X113388657Y-124925057D01*
X113626752Y-124067914D02*
X114293419Y-124067914D01*
X113245800Y-124306009D02*
X113960085Y-124544104D01*
X113960085Y-124544104D02*
X113960085Y-123925057D01*
X113626752Y-123115533D02*
X114293419Y-123115533D01*
X113245800Y-123353628D02*
X113960085Y-123591723D01*
X113960085Y-123591723D02*
X113960085Y-122972676D01*
X94735933Y-66643695D02*
X94688314Y-66691315D01*
X94688314Y-66691315D02*
X94545457Y-66738934D01*
X94545457Y-66738934D02*
X94450219Y-66738934D01*
X94450219Y-66738934D02*
X94307362Y-66691315D01*
X94307362Y-66691315D02*
X94212124Y-66596076D01*
X94212124Y-66596076D02*
X94164505Y-66500838D01*
X94164505Y-66500838D02*
X94116886Y-66310362D01*
X94116886Y-66310362D02*
X94116886Y-66167505D01*
X94116886Y-66167505D02*
X94164505Y-65977029D01*
X94164505Y-65977029D02*
X94212124Y-65881791D01*
X94212124Y-65881791D02*
X94307362Y-65786553D01*
X94307362Y-65786553D02*
X94450219Y-65738934D01*
X94450219Y-65738934D02*
X94545457Y-65738934D01*
X94545457Y-65738934D02*
X94688314Y-65786553D01*
X94688314Y-65786553D02*
X94735933Y-65834172D01*
X95069267Y-65738934D02*
X95688314Y-65738934D01*
X95688314Y-65738934D02*
X95354981Y-66119886D01*
X95354981Y-66119886D02*
X95497838Y-66119886D01*
X95497838Y-66119886D02*
X95593076Y-66167505D01*
X95593076Y-66167505D02*
X95640695Y-66215124D01*
X95640695Y-66215124D02*
X95688314Y-66310362D01*
X95688314Y-66310362D02*
X95688314Y-66548457D01*
X95688314Y-66548457D02*
X95640695Y-66643695D01*
X95640695Y-66643695D02*
X95593076Y-66691315D01*
X95593076Y-66691315D02*
X95497838Y-66738934D01*
X95497838Y-66738934D02*
X95212124Y-66738934D01*
X95212124Y-66738934D02*
X95116886Y-66691315D01*
X95116886Y-66691315D02*
X95069267Y-66643695D01*
X95724695Y-79501934D02*
X95724695Y-80311457D01*
X95724695Y-80311457D02*
X95772314Y-80406695D01*
X95772314Y-80406695D02*
X95819933Y-80454315D01*
X95819933Y-80454315D02*
X95915171Y-80501934D01*
X95915171Y-80501934D02*
X96105647Y-80501934D01*
X96105647Y-80501934D02*
X96200885Y-80454315D01*
X96200885Y-80454315D02*
X96248504Y-80406695D01*
X96248504Y-80406695D02*
X96296123Y-80311457D01*
X96296123Y-80311457D02*
X96296123Y-79501934D01*
X97296123Y-80501934D02*
X96724695Y-80501934D01*
X97010409Y-80501934D02*
X97010409Y-79501934D01*
X97010409Y-79501934D02*
X96915171Y-79644791D01*
X96915171Y-79644791D02*
X96819933Y-79740029D01*
X96819933Y-79740029D02*
X96724695Y-79787648D01*
X169907054Y-72503380D02*
X169907054Y-71693857D01*
X169907054Y-71693857D02*
X169859435Y-71598619D01*
X169859435Y-71598619D02*
X169811816Y-71551000D01*
X169811816Y-71551000D02*
X169716578Y-71503380D01*
X169716578Y-71503380D02*
X169526102Y-71503380D01*
X169526102Y-71503380D02*
X169430864Y-71551000D01*
X169430864Y-71551000D02*
X169383245Y-71598619D01*
X169383245Y-71598619D02*
X169335626Y-71693857D01*
X169335626Y-71693857D02*
X169335626Y-72503380D01*
X168383245Y-72503380D02*
X168859435Y-72503380D01*
X168859435Y-72503380D02*
X168907054Y-72027190D01*
X168907054Y-72027190D02*
X168859435Y-72074809D01*
X168859435Y-72074809D02*
X168764197Y-72122428D01*
X168764197Y-72122428D02*
X168526102Y-72122428D01*
X168526102Y-72122428D02*
X168430864Y-72074809D01*
X168430864Y-72074809D02*
X168383245Y-72027190D01*
X168383245Y-72027190D02*
X168335626Y-71931952D01*
X168335626Y-71931952D02*
X168335626Y-71693857D01*
X168335626Y-71693857D02*
X168383245Y-71598619D01*
X168383245Y-71598619D02*
X168430864Y-71551000D01*
X168430864Y-71551000D02*
X168526102Y-71503380D01*
X168526102Y-71503380D02*
X168764197Y-71503380D01*
X168764197Y-71503380D02*
X168859435Y-71551000D01*
X168859435Y-71551000D02*
X168907054Y-71598619D01*
X99460019Y-126013904D02*
X100269542Y-126013904D01*
X100269542Y-126013904D02*
X100364780Y-125966285D01*
X100364780Y-125966285D02*
X100412400Y-125918666D01*
X100412400Y-125918666D02*
X100460019Y-125823428D01*
X100460019Y-125823428D02*
X100460019Y-125632952D01*
X100460019Y-125632952D02*
X100412400Y-125537714D01*
X100412400Y-125537714D02*
X100364780Y-125490095D01*
X100364780Y-125490095D02*
X100269542Y-125442476D01*
X100269542Y-125442476D02*
X99460019Y-125442476D01*
X99555257Y-125013904D02*
X99507638Y-124966285D01*
X99507638Y-124966285D02*
X99460019Y-124871047D01*
X99460019Y-124871047D02*
X99460019Y-124632952D01*
X99460019Y-124632952D02*
X99507638Y-124537714D01*
X99507638Y-124537714D02*
X99555257Y-124490095D01*
X99555257Y-124490095D02*
X99650495Y-124442476D01*
X99650495Y-124442476D02*
X99745733Y-124442476D01*
X99745733Y-124442476D02*
X99888590Y-124490095D01*
X99888590Y-124490095D02*
X100460019Y-125061523D01*
X100460019Y-125061523D02*
X100460019Y-124442476D01*
X111757755Y-103134819D02*
X111757755Y-103944342D01*
X111757755Y-103944342D02*
X111805374Y-104039580D01*
X111805374Y-104039580D02*
X111852993Y-104087200D01*
X111852993Y-104087200D02*
X111948231Y-104134819D01*
X111948231Y-104134819D02*
X112138707Y-104134819D01*
X112138707Y-104134819D02*
X112233945Y-104087200D01*
X112233945Y-104087200D02*
X112281564Y-104039580D01*
X112281564Y-104039580D02*
X112329183Y-103944342D01*
X112329183Y-103944342D02*
X112329183Y-103134819D01*
X113329183Y-104134819D02*
X112757755Y-104134819D01*
X113043469Y-104134819D02*
X113043469Y-103134819D01*
X113043469Y-103134819D02*
X112948231Y-103277676D01*
X112948231Y-103277676D02*
X112852993Y-103372914D01*
X112852993Y-103372914D02*
X112757755Y-103420533D01*
X114186326Y-103134819D02*
X113995850Y-103134819D01*
X113995850Y-103134819D02*
X113900612Y-103182438D01*
X113900612Y-103182438D02*
X113852993Y-103230057D01*
X113852993Y-103230057D02*
X113757755Y-103372914D01*
X113757755Y-103372914D02*
X113710136Y-103563390D01*
X113710136Y-103563390D02*
X113710136Y-103944342D01*
X113710136Y-103944342D02*
X113757755Y-104039580D01*
X113757755Y-104039580D02*
X113805374Y-104087200D01*
X113805374Y-104087200D02*
X113900612Y-104134819D01*
X113900612Y-104134819D02*
X114091088Y-104134819D01*
X114091088Y-104134819D02*
X114186326Y-104087200D01*
X114186326Y-104087200D02*
X114233945Y-104039580D01*
X114233945Y-104039580D02*
X114281564Y-103944342D01*
X114281564Y-103944342D02*
X114281564Y-103706247D01*
X114281564Y-103706247D02*
X114233945Y-103611009D01*
X114233945Y-103611009D02*
X114186326Y-103563390D01*
X114186326Y-103563390D02*
X114091088Y-103515771D01*
X114091088Y-103515771D02*
X113900612Y-103515771D01*
X113900612Y-103515771D02*
X113805374Y-103563390D01*
X113805374Y-103563390D02*
X113757755Y-103611009D01*
X113757755Y-103611009D02*
X113710136Y-103706247D01*
X201449942Y-57489619D02*
X201116609Y-57013428D01*
X200878514Y-57489619D02*
X200878514Y-56489619D01*
X200878514Y-56489619D02*
X201259466Y-56489619D01*
X201259466Y-56489619D02*
X201354704Y-56537238D01*
X201354704Y-56537238D02*
X201402323Y-56584857D01*
X201402323Y-56584857D02*
X201449942Y-56680095D01*
X201449942Y-56680095D02*
X201449942Y-56822952D01*
X201449942Y-56822952D02*
X201402323Y-56918190D01*
X201402323Y-56918190D02*
X201354704Y-56965809D01*
X201354704Y-56965809D02*
X201259466Y-57013428D01*
X201259466Y-57013428D02*
X200878514Y-57013428D01*
X202402323Y-57489619D02*
X201830895Y-57489619D01*
X202116609Y-57489619D02*
X202116609Y-56489619D01*
X202116609Y-56489619D02*
X202021371Y-56632476D01*
X202021371Y-56632476D02*
X201926133Y-56727714D01*
X201926133Y-56727714D02*
X201830895Y-56775333D01*
X202783276Y-56584857D02*
X202830895Y-56537238D01*
X202830895Y-56537238D02*
X202926133Y-56489619D01*
X202926133Y-56489619D02*
X203164228Y-56489619D01*
X203164228Y-56489619D02*
X203259466Y-56537238D01*
X203259466Y-56537238D02*
X203307085Y-56584857D01*
X203307085Y-56584857D02*
X203354704Y-56680095D01*
X203354704Y-56680095D02*
X203354704Y-56775333D01*
X203354704Y-56775333D02*
X203307085Y-56918190D01*
X203307085Y-56918190D02*
X202735657Y-57489619D01*
X202735657Y-57489619D02*
X203354704Y-57489619D01*
X135710705Y-91167019D02*
X135710705Y-91976542D01*
X135710705Y-91976542D02*
X135758324Y-92071780D01*
X135758324Y-92071780D02*
X135805943Y-92119400D01*
X135805943Y-92119400D02*
X135901181Y-92167019D01*
X135901181Y-92167019D02*
X136091657Y-92167019D01*
X136091657Y-92167019D02*
X136186895Y-92119400D01*
X136186895Y-92119400D02*
X136234514Y-92071780D01*
X136234514Y-92071780D02*
X136282133Y-91976542D01*
X136282133Y-91976542D02*
X136282133Y-91167019D01*
X137282133Y-92167019D02*
X136710705Y-92167019D01*
X136996419Y-92167019D02*
X136996419Y-91167019D01*
X136996419Y-91167019D02*
X136901181Y-91309876D01*
X136901181Y-91309876D02*
X136805943Y-91405114D01*
X136805943Y-91405114D02*
X136710705Y-91452733D01*
X138186895Y-91167019D02*
X137710705Y-91167019D01*
X137710705Y-91167019D02*
X137663086Y-91643209D01*
X137663086Y-91643209D02*
X137710705Y-91595590D01*
X137710705Y-91595590D02*
X137805943Y-91547971D01*
X137805943Y-91547971D02*
X138044038Y-91547971D01*
X138044038Y-91547971D02*
X138139276Y-91595590D01*
X138139276Y-91595590D02*
X138186895Y-91643209D01*
X138186895Y-91643209D02*
X138234514Y-91738447D01*
X138234514Y-91738447D02*
X138234514Y-91976542D01*
X138234514Y-91976542D02*
X138186895Y-92071780D01*
X138186895Y-92071780D02*
X138139276Y-92119400D01*
X138139276Y-92119400D02*
X138044038Y-92167019D01*
X138044038Y-92167019D02*
X137805943Y-92167019D01*
X137805943Y-92167019D02*
X137710705Y-92119400D01*
X137710705Y-92119400D02*
X137663086Y-92071780D01*
X80108733Y-94566066D02*
X80108733Y-95566066D01*
X80108733Y-95566066D02*
X80042066Y-95766066D01*
X80042066Y-95766066D02*
X79908733Y-95899400D01*
X79908733Y-95899400D02*
X79708733Y-95966066D01*
X79708733Y-95966066D02*
X79575400Y-95966066D01*
X80975400Y-95166066D02*
X80842067Y-95099400D01*
X80842067Y-95099400D02*
X80775400Y-95032733D01*
X80775400Y-95032733D02*
X80708733Y-94899400D01*
X80708733Y-94899400D02*
X80708733Y-94832733D01*
X80708733Y-94832733D02*
X80775400Y-94699400D01*
X80775400Y-94699400D02*
X80842067Y-94632733D01*
X80842067Y-94632733D02*
X80975400Y-94566066D01*
X80975400Y-94566066D02*
X81242067Y-94566066D01*
X81242067Y-94566066D02*
X81375400Y-94632733D01*
X81375400Y-94632733D02*
X81442067Y-94699400D01*
X81442067Y-94699400D02*
X81508733Y-94832733D01*
X81508733Y-94832733D02*
X81508733Y-94899400D01*
X81508733Y-94899400D02*
X81442067Y-95032733D01*
X81442067Y-95032733D02*
X81375400Y-95099400D01*
X81375400Y-95099400D02*
X81242067Y-95166066D01*
X81242067Y-95166066D02*
X80975400Y-95166066D01*
X80975400Y-95166066D02*
X80842067Y-95232733D01*
X80842067Y-95232733D02*
X80775400Y-95299400D01*
X80775400Y-95299400D02*
X80708733Y-95432733D01*
X80708733Y-95432733D02*
X80708733Y-95699400D01*
X80708733Y-95699400D02*
X80775400Y-95832733D01*
X80775400Y-95832733D02*
X80842067Y-95899400D01*
X80842067Y-95899400D02*
X80975400Y-95966066D01*
X80975400Y-95966066D02*
X81242067Y-95966066D01*
X81242067Y-95966066D02*
X81375400Y-95899400D01*
X81375400Y-95899400D02*
X81442067Y-95832733D01*
X81442067Y-95832733D02*
X81508733Y-95699400D01*
X81508733Y-95699400D02*
X81508733Y-95432733D01*
X81508733Y-95432733D02*
X81442067Y-95299400D01*
X81442067Y-95299400D02*
X81375400Y-95232733D01*
X81375400Y-95232733D02*
X81242067Y-95166066D01*
X112261419Y-124671057D02*
X111785228Y-125004390D01*
X112261419Y-125242485D02*
X111261419Y-125242485D01*
X111261419Y-125242485D02*
X111261419Y-124861533D01*
X111261419Y-124861533D02*
X111309038Y-124766295D01*
X111309038Y-124766295D02*
X111356657Y-124718676D01*
X111356657Y-124718676D02*
X111451895Y-124671057D01*
X111451895Y-124671057D02*
X111594752Y-124671057D01*
X111594752Y-124671057D02*
X111689990Y-124718676D01*
X111689990Y-124718676D02*
X111737609Y-124766295D01*
X111737609Y-124766295D02*
X111785228Y-124861533D01*
X111785228Y-124861533D02*
X111785228Y-125242485D01*
X111356657Y-124290104D02*
X111309038Y-124242485D01*
X111309038Y-124242485D02*
X111261419Y-124147247D01*
X111261419Y-124147247D02*
X111261419Y-123909152D01*
X111261419Y-123909152D02*
X111309038Y-123813914D01*
X111309038Y-123813914D02*
X111356657Y-123766295D01*
X111356657Y-123766295D02*
X111451895Y-123718676D01*
X111451895Y-123718676D02*
X111547133Y-123718676D01*
X111547133Y-123718676D02*
X111689990Y-123766295D01*
X111689990Y-123766295D02*
X112261419Y-124337723D01*
X112261419Y-124337723D02*
X112261419Y-123718676D01*
X111594752Y-122861533D02*
X112261419Y-122861533D01*
X111213800Y-123099628D02*
X111928085Y-123337723D01*
X111928085Y-123337723D02*
X111928085Y-122718676D01*
X96350480Y-47378757D02*
X96398100Y-47426376D01*
X96398100Y-47426376D02*
X96445719Y-47569233D01*
X96445719Y-47569233D02*
X96445719Y-47664471D01*
X96445719Y-47664471D02*
X96398100Y-47807328D01*
X96398100Y-47807328D02*
X96302861Y-47902566D01*
X96302861Y-47902566D02*
X96207623Y-47950185D01*
X96207623Y-47950185D02*
X96017147Y-47997804D01*
X96017147Y-47997804D02*
X95874290Y-47997804D01*
X95874290Y-47997804D02*
X95683814Y-47950185D01*
X95683814Y-47950185D02*
X95588576Y-47902566D01*
X95588576Y-47902566D02*
X95493338Y-47807328D01*
X95493338Y-47807328D02*
X95445719Y-47664471D01*
X95445719Y-47664471D02*
X95445719Y-47569233D01*
X95445719Y-47569233D02*
X95493338Y-47426376D01*
X95493338Y-47426376D02*
X95540957Y-47378757D01*
X96445719Y-46426376D02*
X96445719Y-46997804D01*
X96445719Y-46712090D02*
X95445719Y-46712090D01*
X95445719Y-46712090D02*
X95588576Y-46807328D01*
X95588576Y-46807328D02*
X95683814Y-46902566D01*
X95683814Y-46902566D02*
X95731433Y-46997804D01*
X96445719Y-45473995D02*
X96445719Y-46045423D01*
X96445719Y-45759709D02*
X95445719Y-45759709D01*
X95445719Y-45759709D02*
X95588576Y-45854947D01*
X95588576Y-45854947D02*
X95683814Y-45950185D01*
X95683814Y-45950185D02*
X95731433Y-46045423D01*
X97794219Y-90228056D02*
X97318028Y-90482056D01*
X97794219Y-90663485D02*
X96794219Y-90663485D01*
X96794219Y-90663485D02*
X96794219Y-90373199D01*
X96794219Y-90373199D02*
X96841838Y-90300628D01*
X96841838Y-90300628D02*
X96889457Y-90264342D01*
X96889457Y-90264342D02*
X96984695Y-90228056D01*
X96984695Y-90228056D02*
X97127552Y-90228056D01*
X97127552Y-90228056D02*
X97222790Y-90264342D01*
X97222790Y-90264342D02*
X97270409Y-90300628D01*
X97270409Y-90300628D02*
X97318028Y-90373199D01*
X97318028Y-90373199D02*
X97318028Y-90663485D01*
X96889457Y-89937771D02*
X96841838Y-89901485D01*
X96841838Y-89901485D02*
X96794219Y-89828914D01*
X96794219Y-89828914D02*
X96794219Y-89647485D01*
X96794219Y-89647485D02*
X96841838Y-89574914D01*
X96841838Y-89574914D02*
X96889457Y-89538628D01*
X96889457Y-89538628D02*
X96984695Y-89502342D01*
X96984695Y-89502342D02*
X97079933Y-89502342D01*
X97079933Y-89502342D02*
X97222790Y-89538628D01*
X97222790Y-89538628D02*
X97794219Y-89974056D01*
X97794219Y-89974056D02*
X97794219Y-89502342D01*
X97794219Y-88776628D02*
X97794219Y-89212057D01*
X97794219Y-88994342D02*
X96794219Y-88994342D01*
X96794219Y-88994342D02*
X96937076Y-89066914D01*
X96937076Y-89066914D02*
X97032314Y-89139485D01*
X97032314Y-89139485D02*
X97079933Y-89212057D01*
X178202619Y-35745466D02*
X177726428Y-36078799D01*
X178202619Y-36316894D02*
X177202619Y-36316894D01*
X177202619Y-36316894D02*
X177202619Y-35935942D01*
X177202619Y-35935942D02*
X177250238Y-35840704D01*
X177250238Y-35840704D02*
X177297857Y-35793085D01*
X177297857Y-35793085D02*
X177393095Y-35745466D01*
X177393095Y-35745466D02*
X177535952Y-35745466D01*
X177535952Y-35745466D02*
X177631190Y-35793085D01*
X177631190Y-35793085D02*
X177678809Y-35840704D01*
X177678809Y-35840704D02*
X177726428Y-35935942D01*
X177726428Y-35935942D02*
X177726428Y-36316894D01*
X177535952Y-34888323D02*
X178202619Y-34888323D01*
X177155000Y-35126418D02*
X177869285Y-35364513D01*
X177869285Y-35364513D02*
X177869285Y-34745466D01*
X110483419Y-124671057D02*
X110007228Y-125004390D01*
X110483419Y-125242485D02*
X109483419Y-125242485D01*
X109483419Y-125242485D02*
X109483419Y-124861533D01*
X109483419Y-124861533D02*
X109531038Y-124766295D01*
X109531038Y-124766295D02*
X109578657Y-124718676D01*
X109578657Y-124718676D02*
X109673895Y-124671057D01*
X109673895Y-124671057D02*
X109816752Y-124671057D01*
X109816752Y-124671057D02*
X109911990Y-124718676D01*
X109911990Y-124718676D02*
X109959609Y-124766295D01*
X109959609Y-124766295D02*
X110007228Y-124861533D01*
X110007228Y-124861533D02*
X110007228Y-125242485D01*
X109578657Y-124290104D02*
X109531038Y-124242485D01*
X109531038Y-124242485D02*
X109483419Y-124147247D01*
X109483419Y-124147247D02*
X109483419Y-123909152D01*
X109483419Y-123909152D02*
X109531038Y-123813914D01*
X109531038Y-123813914D02*
X109578657Y-123766295D01*
X109578657Y-123766295D02*
X109673895Y-123718676D01*
X109673895Y-123718676D02*
X109769133Y-123718676D01*
X109769133Y-123718676D02*
X109911990Y-123766295D01*
X109911990Y-123766295D02*
X110483419Y-124337723D01*
X110483419Y-124337723D02*
X110483419Y-123718676D01*
X109483419Y-122813914D02*
X109483419Y-123290104D01*
X109483419Y-123290104D02*
X109959609Y-123337723D01*
X109959609Y-123337723D02*
X109911990Y-123290104D01*
X109911990Y-123290104D02*
X109864371Y-123194866D01*
X109864371Y-123194866D02*
X109864371Y-122956771D01*
X109864371Y-122956771D02*
X109911990Y-122861533D01*
X109911990Y-122861533D02*
X109959609Y-122813914D01*
X109959609Y-122813914D02*
X110054847Y-122766295D01*
X110054847Y-122766295D02*
X110292942Y-122766295D01*
X110292942Y-122766295D02*
X110388180Y-122813914D01*
X110388180Y-122813914D02*
X110435800Y-122861533D01*
X110435800Y-122861533D02*
X110483419Y-122956771D01*
X110483419Y-122956771D02*
X110483419Y-123194866D01*
X110483419Y-123194866D02*
X110435800Y-123290104D01*
X110435800Y-123290104D02*
X110388180Y-123337723D01*
X110747580Y-87779357D02*
X110795200Y-87826976D01*
X110795200Y-87826976D02*
X110842819Y-87969833D01*
X110842819Y-87969833D02*
X110842819Y-88065071D01*
X110842819Y-88065071D02*
X110795200Y-88207928D01*
X110795200Y-88207928D02*
X110699961Y-88303166D01*
X110699961Y-88303166D02*
X110604723Y-88350785D01*
X110604723Y-88350785D02*
X110414247Y-88398404D01*
X110414247Y-88398404D02*
X110271390Y-88398404D01*
X110271390Y-88398404D02*
X110080914Y-88350785D01*
X110080914Y-88350785D02*
X109985676Y-88303166D01*
X109985676Y-88303166D02*
X109890438Y-88207928D01*
X109890438Y-88207928D02*
X109842819Y-88065071D01*
X109842819Y-88065071D02*
X109842819Y-87969833D01*
X109842819Y-87969833D02*
X109890438Y-87826976D01*
X109890438Y-87826976D02*
X109938057Y-87779357D01*
X109938057Y-87398404D02*
X109890438Y-87350785D01*
X109890438Y-87350785D02*
X109842819Y-87255547D01*
X109842819Y-87255547D02*
X109842819Y-87017452D01*
X109842819Y-87017452D02*
X109890438Y-86922214D01*
X109890438Y-86922214D02*
X109938057Y-86874595D01*
X109938057Y-86874595D02*
X110033295Y-86826976D01*
X110033295Y-86826976D02*
X110128533Y-86826976D01*
X110128533Y-86826976D02*
X110271390Y-86874595D01*
X110271390Y-86874595D02*
X110842819Y-87446023D01*
X110842819Y-87446023D02*
X110842819Y-86826976D01*
X109842819Y-85969833D02*
X109842819Y-86160309D01*
X109842819Y-86160309D02*
X109890438Y-86255547D01*
X109890438Y-86255547D02*
X109938057Y-86303166D01*
X109938057Y-86303166D02*
X110080914Y-86398404D01*
X110080914Y-86398404D02*
X110271390Y-86446023D01*
X110271390Y-86446023D02*
X110652342Y-86446023D01*
X110652342Y-86446023D02*
X110747580Y-86398404D01*
X110747580Y-86398404D02*
X110795200Y-86350785D01*
X110795200Y-86350785D02*
X110842819Y-86255547D01*
X110842819Y-86255547D02*
X110842819Y-86065071D01*
X110842819Y-86065071D02*
X110795200Y-85969833D01*
X110795200Y-85969833D02*
X110747580Y-85922214D01*
X110747580Y-85922214D02*
X110652342Y-85874595D01*
X110652342Y-85874595D02*
X110414247Y-85874595D01*
X110414247Y-85874595D02*
X110319009Y-85922214D01*
X110319009Y-85922214D02*
X110271390Y-85969833D01*
X110271390Y-85969833D02*
X110223771Y-86065071D01*
X110223771Y-86065071D02*
X110223771Y-86255547D01*
X110223771Y-86255547D02*
X110271390Y-86350785D01*
X110271390Y-86350785D02*
X110319009Y-86398404D01*
X110319009Y-86398404D02*
X110414247Y-86446023D01*
X110732819Y-92859357D02*
X110256628Y-93192690D01*
X110732819Y-93430785D02*
X109732819Y-93430785D01*
X109732819Y-93430785D02*
X109732819Y-93049833D01*
X109732819Y-93049833D02*
X109780438Y-92954595D01*
X109780438Y-92954595D02*
X109828057Y-92906976D01*
X109828057Y-92906976D02*
X109923295Y-92859357D01*
X109923295Y-92859357D02*
X110066152Y-92859357D01*
X110066152Y-92859357D02*
X110161390Y-92906976D01*
X110161390Y-92906976D02*
X110209009Y-92954595D01*
X110209009Y-92954595D02*
X110256628Y-93049833D01*
X110256628Y-93049833D02*
X110256628Y-93430785D01*
X110732819Y-91906976D02*
X110732819Y-92478404D01*
X110732819Y-92192690D02*
X109732819Y-92192690D01*
X109732819Y-92192690D02*
X109875676Y-92287928D01*
X109875676Y-92287928D02*
X109970914Y-92383166D01*
X109970914Y-92383166D02*
X110018533Y-92478404D01*
X109732819Y-91573642D02*
X109732819Y-90906976D01*
X109732819Y-90906976D02*
X110732819Y-91335547D01*
X96415305Y-107020019D02*
X96415305Y-107829542D01*
X96415305Y-107829542D02*
X96462924Y-107924780D01*
X96462924Y-107924780D02*
X96510543Y-107972400D01*
X96510543Y-107972400D02*
X96605781Y-108020019D01*
X96605781Y-108020019D02*
X96796257Y-108020019D01*
X96796257Y-108020019D02*
X96891495Y-107972400D01*
X96891495Y-107972400D02*
X96939114Y-107924780D01*
X96939114Y-107924780D02*
X96986733Y-107829542D01*
X96986733Y-107829542D02*
X96986733Y-107020019D01*
X97415305Y-107115257D02*
X97462924Y-107067638D01*
X97462924Y-107067638D02*
X97558162Y-107020019D01*
X97558162Y-107020019D02*
X97796257Y-107020019D01*
X97796257Y-107020019D02*
X97891495Y-107067638D01*
X97891495Y-107067638D02*
X97939114Y-107115257D01*
X97939114Y-107115257D02*
X97986733Y-107210495D01*
X97986733Y-107210495D02*
X97986733Y-107305733D01*
X97986733Y-107305733D02*
X97939114Y-107448590D01*
X97939114Y-107448590D02*
X97367686Y-108020019D01*
X97367686Y-108020019D02*
X97986733Y-108020019D01*
X98605781Y-107020019D02*
X98701019Y-107020019D01*
X98701019Y-107020019D02*
X98796257Y-107067638D01*
X98796257Y-107067638D02*
X98843876Y-107115257D01*
X98843876Y-107115257D02*
X98891495Y-107210495D01*
X98891495Y-107210495D02*
X98939114Y-107400971D01*
X98939114Y-107400971D02*
X98939114Y-107639066D01*
X98939114Y-107639066D02*
X98891495Y-107829542D01*
X98891495Y-107829542D02*
X98843876Y-107924780D01*
X98843876Y-107924780D02*
X98796257Y-107972400D01*
X98796257Y-107972400D02*
X98701019Y-108020019D01*
X98701019Y-108020019D02*
X98605781Y-108020019D01*
X98605781Y-108020019D02*
X98510543Y-107972400D01*
X98510543Y-107972400D02*
X98462924Y-107924780D01*
X98462924Y-107924780D02*
X98415305Y-107829542D01*
X98415305Y-107829542D02*
X98367686Y-107639066D01*
X98367686Y-107639066D02*
X98367686Y-107400971D01*
X98367686Y-107400971D02*
X98415305Y-107210495D01*
X98415305Y-107210495D02*
X98462924Y-107115257D01*
X98462924Y-107115257D02*
X98510543Y-107067638D01*
X98510543Y-107067638D02*
X98605781Y-107020019D01*
X169862454Y-86695380D02*
X169862454Y-85885857D01*
X169862454Y-85885857D02*
X169814835Y-85790619D01*
X169814835Y-85790619D02*
X169767216Y-85743000D01*
X169767216Y-85743000D02*
X169671978Y-85695380D01*
X169671978Y-85695380D02*
X169481502Y-85695380D01*
X169481502Y-85695380D02*
X169386264Y-85743000D01*
X169386264Y-85743000D02*
X169338645Y-85790619D01*
X169338645Y-85790619D02*
X169291026Y-85885857D01*
X169291026Y-85885857D02*
X169291026Y-86695380D01*
X168386264Y-86695380D02*
X168576740Y-86695380D01*
X168576740Y-86695380D02*
X168671978Y-86647761D01*
X168671978Y-86647761D02*
X168719597Y-86600142D01*
X168719597Y-86600142D02*
X168814835Y-86457285D01*
X168814835Y-86457285D02*
X168862454Y-86266809D01*
X168862454Y-86266809D02*
X168862454Y-85885857D01*
X168862454Y-85885857D02*
X168814835Y-85790619D01*
X168814835Y-85790619D02*
X168767216Y-85743000D01*
X168767216Y-85743000D02*
X168671978Y-85695380D01*
X168671978Y-85695380D02*
X168481502Y-85695380D01*
X168481502Y-85695380D02*
X168386264Y-85743000D01*
X168386264Y-85743000D02*
X168338645Y-85790619D01*
X168338645Y-85790619D02*
X168291026Y-85885857D01*
X168291026Y-85885857D02*
X168291026Y-86123952D01*
X168291026Y-86123952D02*
X168338645Y-86219190D01*
X168338645Y-86219190D02*
X168386264Y-86266809D01*
X168386264Y-86266809D02*
X168481502Y-86314428D01*
X168481502Y-86314428D02*
X168671978Y-86314428D01*
X168671978Y-86314428D02*
X168767216Y-86266809D01*
X168767216Y-86266809D02*
X168814835Y-86219190D01*
X168814835Y-86219190D02*
X168862454Y-86123952D01*
X78969197Y-38185319D02*
X78969197Y-38899604D01*
X78969197Y-38899604D02*
X78921578Y-39042461D01*
X78921578Y-39042461D02*
X78826340Y-39137700D01*
X78826340Y-39137700D02*
X78683483Y-39185319D01*
X78683483Y-39185319D02*
X78588245Y-39185319D01*
X79397769Y-38280557D02*
X79445388Y-38232938D01*
X79445388Y-38232938D02*
X79540626Y-38185319D01*
X79540626Y-38185319D02*
X79778721Y-38185319D01*
X79778721Y-38185319D02*
X79873959Y-38232938D01*
X79873959Y-38232938D02*
X79921578Y-38280557D01*
X79921578Y-38280557D02*
X79969197Y-38375795D01*
X79969197Y-38375795D02*
X79969197Y-38471033D01*
X79969197Y-38471033D02*
X79921578Y-38613890D01*
X79921578Y-38613890D02*
X79350150Y-39185319D01*
X79350150Y-39185319D02*
X79969197Y-39185319D01*
X98775719Y-49724566D02*
X98299528Y-50057899D01*
X98775719Y-50295994D02*
X97775719Y-50295994D01*
X97775719Y-50295994D02*
X97775719Y-49915042D01*
X97775719Y-49915042D02*
X97823338Y-49819804D01*
X97823338Y-49819804D02*
X97870957Y-49772185D01*
X97870957Y-49772185D02*
X97966195Y-49724566D01*
X97966195Y-49724566D02*
X98109052Y-49724566D01*
X98109052Y-49724566D02*
X98204290Y-49772185D01*
X98204290Y-49772185D02*
X98251909Y-49819804D01*
X98251909Y-49819804D02*
X98299528Y-49915042D01*
X98299528Y-49915042D02*
X98299528Y-50295994D01*
X98204290Y-49153137D02*
X98156671Y-49248375D01*
X98156671Y-49248375D02*
X98109052Y-49295994D01*
X98109052Y-49295994D02*
X98013814Y-49343613D01*
X98013814Y-49343613D02*
X97966195Y-49343613D01*
X97966195Y-49343613D02*
X97870957Y-49295994D01*
X97870957Y-49295994D02*
X97823338Y-49248375D01*
X97823338Y-49248375D02*
X97775719Y-49153137D01*
X97775719Y-49153137D02*
X97775719Y-48962661D01*
X97775719Y-48962661D02*
X97823338Y-48867423D01*
X97823338Y-48867423D02*
X97870957Y-48819804D01*
X97870957Y-48819804D02*
X97966195Y-48772185D01*
X97966195Y-48772185D02*
X98013814Y-48772185D01*
X98013814Y-48772185D02*
X98109052Y-48819804D01*
X98109052Y-48819804D02*
X98156671Y-48867423D01*
X98156671Y-48867423D02*
X98204290Y-48962661D01*
X98204290Y-48962661D02*
X98204290Y-49153137D01*
X98204290Y-49153137D02*
X98251909Y-49248375D01*
X98251909Y-49248375D02*
X98299528Y-49295994D01*
X98299528Y-49295994D02*
X98394766Y-49343613D01*
X98394766Y-49343613D02*
X98585242Y-49343613D01*
X98585242Y-49343613D02*
X98680480Y-49295994D01*
X98680480Y-49295994D02*
X98728100Y-49248375D01*
X98728100Y-49248375D02*
X98775719Y-49153137D01*
X98775719Y-49153137D02*
X98775719Y-48962661D01*
X98775719Y-48962661D02*
X98728100Y-48867423D01*
X98728100Y-48867423D02*
X98680480Y-48819804D01*
X98680480Y-48819804D02*
X98585242Y-48772185D01*
X98585242Y-48772185D02*
X98394766Y-48772185D01*
X98394766Y-48772185D02*
X98299528Y-48819804D01*
X98299528Y-48819804D02*
X98251909Y-48867423D01*
X98251909Y-48867423D02*
X98204290Y-48962661D01*
D12*
%TO.C,C58*%
X204550000Y-75899836D02*
X204550000Y-75684164D01*
X205270000Y-75899836D02*
X205270000Y-75684164D01*
%TO.C,C38*%
X198200000Y-73359836D02*
X198200000Y-73144164D01*
X198920000Y-73359836D02*
X198920000Y-73144164D01*
D13*
%TO.C,U27*%
X139907800Y-63635800D02*
X139907800Y-62385800D01*
X142247800Y-63635800D02*
X142247800Y-62385800D01*
D14*
X140527800Y-65135800D02*
G75*
G03*
X140527800Y-65135800I-100000J0D01*
G01*
D12*
%TO.C,C43*%
X195660000Y-71073836D02*
X195660000Y-70858164D01*
X196380000Y-71073836D02*
X196380000Y-70858164D01*
D15*
%TO.C,U3*%
X189313800Y-59402800D02*
X186313800Y-59402800D01*
X189313800Y-52902800D02*
X189313800Y-59402800D01*
X186313800Y-59402800D02*
X186313800Y-52902800D01*
X186313800Y-52902800D02*
X189313800Y-52902800D01*
D13*
X191115800Y-59835800D02*
G75*
G03*
X191115800Y-59835800I-127000J0D01*
G01*
D12*
%TO.C,R22*%
X187192159Y-106253800D02*
X187499441Y-106253800D01*
X187192159Y-107013800D02*
X187499441Y-107013800D01*
%TO.C,C21*%
X199152636Y-61076800D02*
X198936964Y-61076800D01*
X199152636Y-60356800D02*
X198936964Y-60356800D01*
%TO.C,C49*%
X147528000Y-125936836D02*
X147528000Y-125721164D01*
X148248000Y-125936836D02*
X148248000Y-125721164D01*
%TO.C,C37*%
X193443800Y-108017220D02*
X193443800Y-108298380D01*
X192423800Y-108017220D02*
X192423800Y-108298380D01*
D13*
%TO.C,PS4*%
X77894900Y-45909900D02*
X83894900Y-45909900D01*
X83894900Y-45909900D02*
X83894900Y-34409900D01*
X77894900Y-34409900D02*
X77894900Y-45909900D01*
X83894900Y-34409900D02*
X77894900Y-34409900D01*
D14*
X82984900Y-47269900D02*
G75*
G03*
X82984900Y-47269900I-100000J0D01*
G01*
D12*
%TO.C,R11*%
X198045542Y-58416300D02*
X198520058Y-58416300D01*
X198045542Y-59461300D02*
X198520058Y-59461300D01*
%TO.C,C1*%
X195031800Y-61124964D02*
X195031800Y-61340636D01*
X194311800Y-61124964D02*
X194311800Y-61340636D01*
D13*
%TO.C,U8*%
X147098800Y-79047200D02*
X147098800Y-84427200D01*
X139768800Y-79047200D02*
X139768800Y-84427200D01*
D14*
X146938800Y-76577200D02*
G75*
G03*
X146938800Y-76577200I-100000J0D01*
G01*
D13*
%TO.C,U25*%
X163070000Y-118254000D02*
X170670000Y-118254000D01*
X163070000Y-129904000D02*
X170670000Y-129904000D01*
D14*
X160450000Y-118399000D02*
G75*
G03*
X160450000Y-118399000I-100000J0D01*
G01*
D13*
%TO.C,U18*%
X85396400Y-53121900D02*
X85396400Y-46501900D01*
X94681400Y-53121900D02*
X94681400Y-46501900D01*
D14*
X85688900Y-56686900D02*
G75*
G03*
X85688900Y-56686900I-100000J0D01*
G01*
D12*
%TO.C,C34*%
X95453564Y-94699200D02*
X95669236Y-94699200D01*
X95453564Y-95419200D02*
X95669236Y-95419200D01*
%TO.C,C46*%
X143710580Y-129415000D02*
X143429420Y-129415000D01*
X143710580Y-128395000D02*
X143429420Y-128395000D01*
D13*
%TO.C,J10*%
X115870600Y-134914200D02*
X131110600Y-134914200D01*
X115870600Y-143114200D02*
X115870600Y-134914200D01*
X131110600Y-134914200D02*
X131110600Y-143114200D01*
X131110600Y-143114200D02*
X115870600Y-143114200D01*
D14*
X118510600Y-133914200D02*
G75*
G03*
X118510600Y-133914200I-100000J0D01*
G01*
D13*
%TO.C,U26*%
X158880500Y-123854000D02*
X158880500Y-130474000D01*
X149595500Y-123854000D02*
X149595500Y-130474000D01*
D14*
X158788000Y-120289000D02*
G75*
G03*
X158788000Y-120289000I-100000J0D01*
G01*
D12*
%TO.C,C48*%
X203280000Y-73359836D02*
X203280000Y-73144164D01*
X204000000Y-73359836D02*
X204000000Y-73144164D01*
D13*
%TO.C,U21*%
X180250800Y-88403800D02*
X180250800Y-80803800D01*
X191900800Y-88403800D02*
X191900800Y-80803800D01*
D14*
X180495800Y-91123800D02*
G75*
G03*
X180495800Y-91123800I-100000J0D01*
G01*
D16*
%TO.C,CR1*%
X194227300Y-50209200D02*
X194453360Y-50209200D01*
X196160240Y-50209200D02*
X196386300Y-50209200D01*
X196386300Y-50209200D02*
X196386300Y-46856400D01*
X194227300Y-46856400D02*
X194227300Y-50209200D01*
X194453360Y-46856400D02*
X194227300Y-46856400D01*
X196386300Y-46856400D02*
X196160240Y-46856400D01*
D12*
%TO.C,C2*%
X193658852Y-70894800D02*
X193136348Y-70894800D01*
X193658852Y-69424800D02*
X193136348Y-69424800D01*
%TO.C,C6*%
X88634200Y-126700164D02*
X88634200Y-126915836D01*
X87914200Y-126700164D02*
X87914200Y-126915836D01*
%TO.C,C14*%
X200740000Y-73359836D02*
X200740000Y-73144164D01*
X201460000Y-73359836D02*
X201460000Y-73144164D01*
%TO.C,C41*%
X110423180Y-129872200D02*
X110142020Y-129872200D01*
X110423180Y-128852200D02*
X110142020Y-128852200D01*
%TO.C,C30*%
X177896380Y-129658200D02*
X177615220Y-129658200D01*
X177896380Y-128638200D02*
X177615220Y-128638200D01*
%TO.C,C12*%
X197650000Y-73172164D02*
X197650000Y-73387836D01*
X196930000Y-73172164D02*
X196930000Y-73387836D01*
D16*
%TO.C,LED1*%
X197199000Y-40405000D02*
X197199000Y-41675000D01*
X197199000Y-41040000D02*
X197961000Y-40405000D01*
X197199000Y-41040000D02*
X197961000Y-40532000D01*
X197199000Y-41040000D02*
X197961000Y-40659000D01*
X197199000Y-41040000D02*
X197961000Y-40786000D01*
X197199000Y-41040000D02*
X197961000Y-40913000D01*
X197199000Y-41040000D02*
X197961000Y-41167000D01*
X197199000Y-41040000D02*
X197961000Y-41294000D01*
X197199000Y-41040000D02*
X197961000Y-41421000D01*
X197199000Y-41040000D02*
X197961000Y-41548000D01*
X197199000Y-41040000D02*
X197961000Y-41675000D01*
X197961000Y-40405000D02*
X197961000Y-41675000D01*
X198215000Y-41040000D02*
X196945000Y-41040000D01*
X200541850Y-41662300D02*
X201730150Y-41662300D01*
X201730150Y-40417700D02*
X200541850Y-40417700D01*
D12*
%TO.C,C10*%
X193880164Y-73908000D02*
X194095836Y-73908000D01*
X193880164Y-74628000D02*
X194095836Y-74628000D01*
%TO.C,C33*%
X199470000Y-71045836D02*
X199470000Y-70830164D01*
X200190000Y-71045836D02*
X200190000Y-70830164D01*
D16*
%TO.C,U7*%
X175221950Y-106241600D02*
X175221950Y-101648743D01*
X175221950Y-101648743D02*
X175221950Y-96348743D01*
X175221950Y-96348743D02*
X175221950Y-93998800D01*
X175221950Y-93998800D02*
X162979150Y-93998800D01*
X162979150Y-106241600D02*
X175221950Y-106241600D01*
X162979150Y-103891657D02*
X162979150Y-106241600D01*
X162979150Y-98591658D02*
X162979150Y-101648743D01*
X162979150Y-93998800D02*
X162979150Y-96348743D01*
X177203150Y-102770200D02*
G75*
G03*
X177203150Y-102770200I-203200J0D01*
G01*
D13*
%TO.C,U14*%
X200133800Y-45483800D02*
X200133800Y-48533800D01*
X197083800Y-45483800D02*
X197083800Y-48533800D01*
D14*
X199988800Y-43388800D02*
G75*
G03*
X199988800Y-43388800I-100000J0D01*
G01*
D12*
%TO.C,C62*%
X198200000Y-75927836D02*
X198200000Y-75712164D01*
X198920000Y-75927836D02*
X198920000Y-75712164D01*
%TO.C,C23*%
X195708800Y-44830636D02*
X195708800Y-44614964D01*
X196428800Y-44830636D02*
X196428800Y-44614964D01*
%TO.C,R10*%
X95715041Y-93153200D02*
X95407759Y-93153200D01*
X95715041Y-92393200D02*
X95407759Y-92393200D01*
D13*
%TO.C,U28*%
X135589800Y-63635800D02*
X135589800Y-62385800D01*
X137929800Y-63635800D02*
X137929800Y-62385800D01*
D14*
X136209800Y-65135800D02*
G75*
G03*
X136209800Y-65135800I-100000J0D01*
G01*
D12*
%TO.C,C61*%
X199446800Y-62602636D02*
X199446800Y-62386964D01*
X200166800Y-62602636D02*
X200166800Y-62386964D01*
%TO.C,R23*%
X187499441Y-109807800D02*
X187192159Y-109807800D01*
X187499441Y-109047800D02*
X187192159Y-109047800D01*
%TO.C,C39*%
X187237964Y-103733800D02*
X187453636Y-103733800D01*
X187237964Y-104453800D02*
X187453636Y-104453800D01*
D16*
%TO.C,Q1*%
X203741800Y-45703199D02*
X202937346Y-45703199D01*
X203741800Y-46564259D02*
X203741800Y-45703199D01*
X202090800Y-47143338D02*
X202090800Y-47514260D01*
X203741800Y-48954399D02*
X203741800Y-48093339D01*
X202937346Y-48954399D02*
X203741800Y-48954399D01*
D13*
%TO.C,Y1*%
X181453800Y-128514200D02*
X180153800Y-128514200D01*
X181453800Y-131954200D02*
X180153800Y-131954200D01*
D14*
X180903800Y-128014200D02*
G75*
G03*
X180903800Y-128014200I-100000J0D01*
G01*
D12*
%TO.C,C60*%
X200740000Y-75927836D02*
X200740000Y-75712164D01*
X201460000Y-75927836D02*
X201460000Y-75712164D01*
%TO.C,C22*%
X202524800Y-44106964D02*
X202524800Y-44322636D01*
X201804800Y-44106964D02*
X201804800Y-44322636D01*
%TO.C,C64*%
X204550000Y-71045836D02*
X204550000Y-70830164D01*
X205270000Y-71045836D02*
X205270000Y-70830164D01*
D13*
%TO.C,J11*%
X149158000Y-135219000D02*
X164398000Y-135219000D01*
X149158000Y-143419000D02*
X149158000Y-135219000D01*
X164398000Y-135219000D02*
X164398000Y-143419000D01*
X164398000Y-143419000D02*
X149158000Y-143419000D01*
D14*
X151798000Y-134219000D02*
G75*
G03*
X151798000Y-134219000I-100000J0D01*
G01*
D13*
%TO.C,Y2*%
X93287400Y-94960200D02*
X93287400Y-93660200D01*
X89847400Y-94960200D02*
X89847400Y-93660200D01*
D14*
X93887400Y-94310200D02*
G75*
G03*
X93887400Y-94310200I-100000J0D01*
G01*
D13*
%TO.C,S4*%
X176875800Y-142204700D02*
X177625800Y-142204700D01*
X180325800Y-142204700D02*
X181175800Y-142204700D01*
X181175800Y-142204700D02*
X181175800Y-133604700D01*
X176875800Y-133604700D02*
X176875800Y-142204700D01*
X177625800Y-133604700D02*
X176875800Y-133604700D01*
X181175800Y-133604700D02*
X180425800Y-133604700D01*
D14*
X179075800Y-143754700D02*
G75*
G03*
X179075800Y-143754700I-100000J0D01*
G01*
D12*
%TO.C,C28*%
X198920000Y-70858164D02*
X198920000Y-71073836D01*
X198200000Y-70858164D02*
X198200000Y-71073836D01*
D13*
%TO.C,S2*%
X78504200Y-142820000D02*
X79254200Y-142820000D01*
X81954200Y-142820000D02*
X82804200Y-142820000D01*
X82804200Y-142820000D02*
X82804200Y-134220000D01*
X78504200Y-134220000D02*
X78504200Y-142820000D01*
X79254200Y-134220000D02*
X78504200Y-134220000D01*
X82804200Y-134220000D02*
X82054200Y-134220000D01*
D14*
X80704200Y-144370000D02*
G75*
G03*
X80704200Y-144370000I-100000J0D01*
G01*
D12*
%TO.C,C40*%
X197650000Y-70858164D02*
X197650000Y-71073836D01*
X196930000Y-70858164D02*
X196930000Y-71073836D01*
%TO.C,R3*%
X92716959Y-62348115D02*
X93024241Y-62348115D01*
X92716959Y-63108115D02*
X93024241Y-63108115D01*
%TO.C,C19*%
X197239800Y-61659548D02*
X197239800Y-62182052D01*
X195769800Y-61659548D02*
X195769800Y-62182052D01*
D14*
%TO.C,J12*%
X186697300Y-49918300D02*
X186697300Y-47378300D01*
X191777300Y-47378300D02*
X186697300Y-47378300D01*
X191777300Y-47378300D02*
X191777300Y-49918300D01*
X191777300Y-49918300D02*
X186697300Y-49918300D01*
X186147300Y-48648300D02*
G75*
G03*
X186147300Y-48648300I-100000J0D01*
G01*
D13*
%TO.C,J3*%
X86602100Y-63998115D02*
X86602100Y-79238115D01*
X78402100Y-63998115D02*
X86602100Y-63998115D01*
X86602100Y-79238115D02*
X78402100Y-79238115D01*
X78402100Y-79238115D02*
X78402100Y-63998115D01*
D14*
X87702100Y-66538115D02*
G75*
G03*
X87702100Y-66538115I-100000J0D01*
G01*
D12*
%TO.C,R1*%
X192511800Y-35679159D02*
X192511800Y-35986441D01*
X191751800Y-35679159D02*
X191751800Y-35986441D01*
%TO.C,R16*%
X122974000Y-105454641D02*
X122974000Y-105147359D01*
X123734000Y-105454641D02*
X123734000Y-105147359D01*
D13*
%TO.C,Y5*%
X148030000Y-128455000D02*
X146730000Y-128455000D01*
X148030000Y-131895000D02*
X146730000Y-131895000D01*
D14*
X147480000Y-127955000D02*
G75*
G03*
X147480000Y-127955000I-100000J0D01*
G01*
D13*
%TO.C,Y3*%
X190197800Y-104205800D02*
X190197800Y-105505800D01*
X193637800Y-104205800D02*
X193637800Y-105505800D01*
D14*
X189797800Y-104855800D02*
G75*
G03*
X189797800Y-104855800I-100000J0D01*
G01*
D16*
%TO.C,U9*%
X131425800Y-68954400D02*
X123805800Y-68954400D01*
X127920600Y-79419200D02*
X131425800Y-79419200D01*
X123805800Y-79419200D02*
X127920600Y-79419200D01*
X127920600Y-79419200D02*
G75*
G03*
X127311000Y-79444600I-304800J-12700D01*
G01*
D13*
%TO.C,U23*%
X130066600Y-117949200D02*
X137666600Y-117949200D01*
X130066600Y-129599200D02*
X137666600Y-129599200D01*
D14*
X127446600Y-118094200D02*
G75*
G03*
X127446600Y-118094200I-100000J0D01*
G01*
D13*
%TO.C,S9*%
X142436000Y-142723500D02*
X143186000Y-142723500D01*
X145886000Y-142723500D02*
X146736000Y-142723500D01*
X146736000Y-142723500D02*
X146736000Y-134123500D01*
X142436000Y-134123500D02*
X142436000Y-142723500D01*
X143186000Y-134123500D02*
X142436000Y-134123500D01*
X146736000Y-134123500D02*
X145986000Y-134123500D01*
D14*
X144636000Y-144273500D02*
G75*
G03*
X144636000Y-144273500I-100000J0D01*
G01*
D12*
%TO.C,C45*%
X196380000Y-73144164D02*
X196380000Y-73359836D01*
X195660000Y-73144164D02*
X195660000Y-73359836D01*
%TO.C,C54*%
X203280000Y-75899836D02*
X203280000Y-75684164D01*
X204000000Y-75899836D02*
X204000000Y-75684164D01*
D16*
%TO.C,U13*%
X102964450Y-67778600D02*
X102964450Y-72371457D01*
X102964450Y-72371457D02*
X102964450Y-77671457D01*
X102964450Y-77671457D02*
X102964450Y-80021400D01*
X102964450Y-80021400D02*
X115207250Y-80021400D01*
X115207250Y-67778600D02*
X102964450Y-67778600D01*
X115207250Y-70128543D02*
X115207250Y-67778600D01*
X115207250Y-75428542D02*
X115207250Y-72371457D01*
X115207250Y-80021400D02*
X115207250Y-77671457D01*
X101389650Y-71250000D02*
G75*
G03*
X101389650Y-71250000I-203200J0D01*
G01*
D12*
%TO.C,C31*%
X92257400Y-90386780D02*
X92257400Y-90105620D01*
X93277400Y-90386780D02*
X93277400Y-90105620D01*
%TO.C,C57*%
X197922800Y-65594636D02*
X197922800Y-65378964D01*
X198642800Y-65594636D02*
X198642800Y-65378964D01*
%TO.C,C16*%
X204550000Y-73387836D02*
X204550000Y-73172164D01*
X205270000Y-73387836D02*
X205270000Y-73172164D01*
D13*
%TO.C,S3*%
X112700000Y-93722500D02*
X113450000Y-93722500D01*
X116150000Y-93722500D02*
X117000000Y-93722500D01*
X117000000Y-93722500D02*
X117000000Y-85122500D01*
X112700000Y-85122500D02*
X112700000Y-93722500D01*
X113450000Y-85122500D02*
X112700000Y-85122500D01*
X117000000Y-85122500D02*
X116250000Y-85122500D01*
D14*
X114900000Y-95272500D02*
G75*
G03*
X114900000Y-95272500I-100000J0D01*
G01*
D12*
%TO.C,C44*%
X114198600Y-126460364D02*
X114198600Y-126676036D01*
X113478600Y-126460364D02*
X113478600Y-126676036D01*
%TO.C,C3*%
X92978436Y-66644115D02*
X92762764Y-66644115D01*
X92978436Y-65924115D02*
X92762764Y-65924115D01*
%TO.C,C51*%
X200190000Y-75712164D02*
X200190000Y-75927836D01*
X199470000Y-75712164D02*
X199470000Y-75927836D01*
%TO.C,R26*%
X145982000Y-125675359D02*
X145982000Y-125982641D01*
X145222000Y-125675359D02*
X145222000Y-125982641D01*
D13*
%TO.C,VR1*%
X146667800Y-64366800D02*
X153267800Y-64366800D01*
X146667800Y-66531800D02*
X146667800Y-64366800D01*
X146667800Y-71356800D02*
X146667800Y-69071800D01*
X153267800Y-64366800D02*
X153267800Y-66531800D01*
X153267800Y-69071800D02*
X153267800Y-71356800D01*
X153267800Y-71366800D02*
X146667800Y-71366800D01*
D14*
X146003800Y-67836800D02*
G75*
G03*
X146003800Y-67836800I-100000J0D01*
G01*
D13*
%TO.C,U1*%
X97196600Y-79054615D02*
X90576600Y-79054615D01*
X97196600Y-69769615D02*
X90576600Y-69769615D01*
D14*
X100861600Y-78862115D02*
G75*
G03*
X100861600Y-78862115I-100000J0D01*
G01*
D12*
%TO.C,C24*%
X194698800Y-58192052D02*
X194698800Y-57669548D01*
X196168800Y-58192052D02*
X196168800Y-57669548D01*
D13*
%TO.C,PS1*%
X89944600Y-87290115D02*
X89944600Y-81290115D01*
X89944600Y-81290115D02*
X78444600Y-81290115D01*
X78444600Y-87290115D02*
X89944600Y-87290115D01*
X78444600Y-81290115D02*
X78444600Y-87290115D01*
D14*
X91404600Y-82300115D02*
G75*
G03*
X91404600Y-82300115I-100000J0D01*
G01*
D13*
%TO.C,S8*%
X109402600Y-142584200D02*
X110152600Y-142584200D01*
X112852600Y-142584200D02*
X113702600Y-142584200D01*
X113702600Y-142584200D02*
X113702600Y-133984200D01*
X109402600Y-133984200D02*
X109402600Y-142584200D01*
X110152600Y-133984200D02*
X109402600Y-133984200D01*
X113702600Y-133984200D02*
X112952600Y-133984200D01*
D14*
X111602600Y-144134200D02*
G75*
G03*
X111602600Y-144134200I-100000J0D01*
G01*
D12*
%TO.C,C17*%
X202748800Y-66102636D02*
X202748800Y-65886964D01*
X203468800Y-66102636D02*
X203468800Y-65886964D01*
%TO.C,R2*%
X181081800Y-35679159D02*
X181081800Y-35986441D01*
X180321800Y-35679159D02*
X180321800Y-35986441D01*
D16*
%TO.C,U5*%
X175266550Y-78079600D02*
X175266550Y-73486743D01*
X175266550Y-73486743D02*
X175266550Y-68186743D01*
X175266550Y-68186743D02*
X175266550Y-65836800D01*
X175266550Y-65836800D02*
X163023750Y-65836800D01*
X163023750Y-78079600D02*
X175266550Y-78079600D01*
X163023750Y-75729657D02*
X163023750Y-78079600D01*
X163023750Y-70429658D02*
X163023750Y-73486743D01*
X163023750Y-65836800D02*
X163023750Y-68186743D01*
X177247750Y-74608200D02*
G75*
G03*
X177247750Y-74608200I-203200J0D01*
G01*
D13*
%TO.C,U2*%
X99012700Y-124542000D02*
X99012700Y-131162000D01*
X89727700Y-124542000D02*
X89727700Y-131162000D01*
D14*
X98920200Y-120977000D02*
G75*
G03*
X98920200Y-120977000I-100000J0D01*
G01*
D16*
%TO.C,U16*%
X106874450Y-97558600D02*
X106874450Y-102151457D01*
X106874450Y-102151457D02*
X106874450Y-107451457D01*
X106874450Y-107451457D02*
X106874450Y-109801400D01*
X106874450Y-109801400D02*
X119117250Y-109801400D01*
X119117250Y-97558600D02*
X106874450Y-97558600D01*
X119117250Y-99908543D02*
X119117250Y-97558600D01*
X119117250Y-105208542D02*
X119117250Y-102151457D01*
X119117250Y-109801400D02*
X119117250Y-107451457D01*
X105299650Y-101030000D02*
G75*
G03*
X105299650Y-101030000I-203200J0D01*
G01*
D12*
%TO.C,R7*%
X176359800Y-125491841D02*
X176359800Y-125184559D01*
X177119800Y-125491841D02*
X177119800Y-125184559D01*
%TO.C,R12*%
X201865736Y-57949800D02*
X202319864Y-57949800D01*
X201865736Y-59419800D02*
X202319864Y-59419800D01*
D13*
%TO.C,U12*%
X202116800Y-60486800D02*
X202921800Y-60486800D01*
X202116800Y-63486800D02*
X202921800Y-63486800D01*
X204311800Y-60486800D02*
X205116800Y-60486800D01*
X204311800Y-63486800D02*
X205116800Y-63486800D01*
D14*
X201321800Y-60786800D02*
G75*
G03*
X201321800Y-60786800I-100000J0D01*
G01*
D12*
%TO.C,C15*%
X196652800Y-67908636D02*
X196652800Y-67692964D01*
X197372800Y-67908636D02*
X197372800Y-67692964D01*
D13*
%TO.C,U33*%
X112983800Y-63635800D02*
X112983800Y-62385800D01*
X115323800Y-63635800D02*
X115323800Y-62385800D01*
D14*
X113603800Y-65135800D02*
G75*
G03*
X113603800Y-65135800I-100000J0D01*
G01*
D12*
%TO.C,C18*%
X193797764Y-75921200D02*
X194013436Y-75921200D01*
X193797764Y-76641200D02*
X194013436Y-76641200D01*
D13*
%TO.C,U15*%
X136333800Y-94957200D02*
X136333800Y-95597200D01*
X136333800Y-94957200D02*
X136973800Y-94957200D01*
X136333800Y-109157200D02*
X136333800Y-108517200D01*
X136333800Y-109157200D02*
X136973800Y-109157200D01*
X150533800Y-94957200D02*
X149893800Y-94957200D01*
X150533800Y-94957200D02*
X150533800Y-95597200D01*
X150533800Y-109157200D02*
X149893800Y-109157200D01*
X150533800Y-109157200D02*
X150533800Y-108517200D01*
D14*
X134093800Y-96057200D02*
G75*
G03*
X134093800Y-96057200I-100000J0D01*
G01*
D13*
%TO.C,U24*%
X126609100Y-122967200D02*
X126609100Y-129587200D01*
X117324100Y-122967200D02*
X117324100Y-129587200D01*
D14*
X126516600Y-119402200D02*
G75*
G03*
X126516600Y-119402200I-100000J0D01*
G01*
%TO.C,J1*%
X182073800Y-40802800D02*
X182073800Y-42052800D01*
X182073800Y-44772800D02*
X182073800Y-46052800D01*
X191013800Y-40802800D02*
X191013800Y-42052800D01*
X191013800Y-46052800D02*
X191013800Y-44772800D01*
X183393800Y-37452800D02*
G75*
G03*
X183393800Y-37452800I-100000J0D01*
G01*
D12*
%TO.C,R27*%
X142936000Y-125982641D02*
X142936000Y-125675359D01*
X143696000Y-125982641D02*
X143696000Y-125675359D01*
%TO.C,C9*%
X193880164Y-71938000D02*
X194095836Y-71938000D01*
X193880164Y-72658000D02*
X194095836Y-72658000D01*
D13*
%TO.C,PS7*%
X139416600Y-131780200D02*
X133416600Y-131780200D01*
X133416600Y-131780200D02*
X133416600Y-143280200D01*
X139416600Y-143280200D02*
X139416600Y-131780200D01*
X133416600Y-143280200D02*
X139416600Y-143280200D01*
D14*
X134526600Y-130420200D02*
G75*
G03*
X134526600Y-130420200I-100000J0D01*
G01*
D13*
%TO.C,J5*%
X83956200Y-135182000D02*
X99196200Y-135182000D01*
X83956200Y-143382000D02*
X83956200Y-135182000D01*
X99196200Y-135182000D02*
X99196200Y-143382000D01*
X99196200Y-143382000D02*
X83956200Y-143382000D01*
D14*
X86596200Y-134182000D02*
G75*
G03*
X86596200Y-134182000I-100000J0D01*
G01*
D13*
%TO.C,U17*%
X196561800Y-117735200D02*
X204161800Y-117735200D01*
X196561800Y-129385200D02*
X204161800Y-129385200D01*
D14*
X193941800Y-117880200D02*
G75*
G03*
X193941800Y-117880200I-100000J0D01*
G01*
D13*
%TO.C,J6*%
X182835800Y-134908700D02*
X198075800Y-134908700D01*
X182835800Y-143108700D02*
X182835800Y-134908700D01*
X198075800Y-134908700D02*
X198075800Y-143108700D01*
X198075800Y-143108700D02*
X182835800Y-143108700D01*
D14*
X185475800Y-133908700D02*
G75*
G03*
X185475800Y-133908700I-100000J0D01*
G01*
D12*
%TO.C,C50*%
X200190000Y-73172164D02*
X200190000Y-73387836D01*
X199470000Y-73172164D02*
X199470000Y-73387836D01*
D13*
%TO.C,U32*%
X120349800Y-63579800D02*
X120349800Y-62329800D01*
X122689800Y-63579800D02*
X122689800Y-62329800D01*
D14*
X120969800Y-65079800D02*
G75*
G03*
X120969800Y-65079800I-100000J0D01*
G01*
D13*
%TO.C,PS6*%
X193573800Y-79023800D02*
X193573800Y-85023800D01*
X193573800Y-85023800D02*
X205073800Y-85023800D01*
X205073800Y-79023800D02*
X193573800Y-79023800D01*
X205073800Y-85023800D02*
X205073800Y-79023800D01*
D14*
X192313800Y-84013800D02*
G75*
G03*
X192313800Y-84013800I-100000J0D01*
G01*
D12*
%TO.C,C35*%
X201460000Y-70858164D02*
X201460000Y-71073836D01*
X200740000Y-70858164D02*
X200740000Y-71073836D01*
%TO.C,C56*%
X202010000Y-75927836D02*
X202010000Y-75712164D01*
X202730000Y-75927836D02*
X202730000Y-75712164D01*
D13*
%TO.C,J8*%
X86961400Y-96596200D02*
X86961400Y-111836200D01*
X78761400Y-96596200D02*
X86961400Y-96596200D01*
X86961400Y-111836200D02*
X78761400Y-111836200D01*
X78761400Y-111836200D02*
X78761400Y-96596200D01*
D14*
X88061400Y-99136200D02*
G75*
G03*
X88061400Y-99136200I-100000J0D01*
G01*
D13*
%TO.C,U29*%
X131017800Y-63635800D02*
X131017800Y-62385800D01*
X133357800Y-63635800D02*
X133357800Y-62385800D01*
D14*
X131637800Y-65135800D02*
G75*
G03*
X131637800Y-65135800I-100000J0D01*
G01*
D12*
%TO.C,C47*%
X143710580Y-131955000D02*
X143429420Y-131955000D01*
X143710580Y-130935000D02*
X143429420Y-130935000D01*
%TO.C,C8*%
X181205800Y-125446036D02*
X181205800Y-125230364D01*
X181925800Y-125446036D02*
X181925800Y-125230364D01*
%TO.C,R24*%
X112186600Y-126414559D02*
X112186600Y-126721841D01*
X111426600Y-126414559D02*
X111426600Y-126721841D01*
D13*
%TO.C,U31*%
X124413800Y-63579800D02*
X124413800Y-62329800D01*
X126753800Y-63579800D02*
X126753800Y-62329800D01*
D14*
X125033800Y-65079800D02*
G75*
G03*
X125033800Y-65079800I-100000J0D01*
G01*
D12*
%TO.C,C52*%
X197922800Y-67908636D02*
X197922800Y-67692964D01*
X198642800Y-67908636D02*
X198642800Y-67692964D01*
%TO.C,R20*%
X119107800Y-74340441D02*
X119107800Y-74033159D01*
X119867800Y-74340441D02*
X119867800Y-74033159D01*
%TO.C,C27*%
X197650000Y-75712164D02*
X197650000Y-75927836D01*
X196930000Y-75712164D02*
X196930000Y-75927836D01*
%TO.C,C11*%
X96790900Y-46843736D02*
X96790900Y-46628064D01*
X97510900Y-46843736D02*
X97510900Y-46628064D01*
%TO.C,R19*%
X119107800Y-78912441D02*
X119107800Y-78605159D01*
X119867800Y-78912441D02*
X119867800Y-78605159D01*
%TO.C,R21*%
X95407759Y-89853200D02*
X95715041Y-89853200D01*
X95407759Y-90613200D02*
X95715041Y-90613200D01*
%TO.C,C32*%
X89971400Y-90386780D02*
X89971400Y-90105620D01*
X90991400Y-90386780D02*
X90991400Y-90105620D01*
%TO.C,C36*%
X191411800Y-108271220D02*
X191411800Y-108552380D01*
X190391800Y-108271220D02*
X190391800Y-108552380D01*
%TO.C,R9*%
X179405800Y-125184559D02*
X179405800Y-125491841D01*
X178645800Y-125184559D02*
X178645800Y-125491841D01*
D13*
%TO.C,Y4*%
X114488600Y-128728200D02*
X113188600Y-128728200D01*
X114488600Y-132168200D02*
X113188600Y-132168200D01*
D14*
X113938600Y-128228200D02*
G75*
G03*
X113938600Y-128228200I-100000J0D01*
G01*
D12*
%TO.C,C25*%
X123019400Y-102665636D02*
X123019400Y-102449964D01*
X123739400Y-102665636D02*
X123739400Y-102449964D01*
D13*
%TO.C,PS2*%
X107248200Y-131794000D02*
X101248200Y-131794000D01*
X101248200Y-131794000D02*
X101248200Y-143294000D01*
X107248200Y-143294000D02*
X107248200Y-131794000D01*
X101248200Y-143294000D02*
X107248200Y-143294000D01*
D14*
X102358200Y-130434000D02*
G75*
G03*
X102358200Y-130434000I-100000J0D01*
G01*
D12*
%TO.C,R4*%
X178655300Y-35816058D02*
X178655300Y-35341542D01*
X179700300Y-35816058D02*
X179700300Y-35341542D01*
D13*
%TO.C,S7*%
X204345800Y-109545800D02*
X204345800Y-108795800D01*
X204345800Y-106095800D02*
X204345800Y-105245800D01*
X204345800Y-105245800D02*
X195745800Y-105245800D01*
X195745800Y-109545800D02*
X204345800Y-109545800D01*
X195745800Y-108795800D02*
X195745800Y-109545800D01*
X195745800Y-105245800D02*
X195745800Y-105995800D01*
D14*
X205995800Y-107445800D02*
G75*
G03*
X205995800Y-107445800I-100000J0D01*
G01*
D12*
%TO.C,C55*%
X196652800Y-65566636D02*
X196652800Y-65350964D01*
X197372800Y-65566636D02*
X197372800Y-65350964D01*
%TO.C,C5*%
X202730000Y-70830164D02*
X202730000Y-71045836D01*
X202010000Y-70830164D02*
X202010000Y-71045836D01*
%TO.C,R25*%
X109394600Y-126721841D02*
X109394600Y-126414559D01*
X110154600Y-126721841D02*
X110154600Y-126414559D01*
%TO.C,C53*%
X199446800Y-67908636D02*
X199446800Y-67692964D01*
X200166800Y-67908636D02*
X200166800Y-67692964D01*
%TO.C,C26*%
X111188000Y-87244336D02*
X111188000Y-87028664D01*
X111908000Y-87244336D02*
X111908000Y-87028664D01*
D16*
%TO.C,L1*%
X200833353Y-51187100D02*
X199432247Y-51187100D01*
X199432247Y-55530500D02*
X200833353Y-55530500D01*
X202964900Y-53358800D02*
G75*
G03*
X202964900Y-53358800I-76200J0D01*
G01*
D12*
%TO.C,R6*%
X87894200Y-130545641D02*
X87894200Y-130238359D01*
X88654200Y-130545641D02*
X88654200Y-130238359D01*
D16*
%TO.C,CR2*%
X185071700Y-49727800D02*
X185071700Y-49501740D01*
X185071700Y-47794860D02*
X185071700Y-47568800D01*
X185071700Y-47568800D02*
X181718900Y-47568800D01*
X181718900Y-49727800D02*
X185071700Y-49727800D01*
X181718900Y-49501740D02*
X181718900Y-49727800D01*
X181718900Y-47568800D02*
X181718900Y-47794860D01*
D12*
%TO.C,C42*%
X110423180Y-132158200D02*
X110142020Y-132158200D01*
X110423180Y-131138200D02*
X110142020Y-131138200D01*
D13*
%TO.C,S5*%
X106412900Y-34811900D02*
X105662900Y-34811900D01*
X102962900Y-34811900D02*
X102112900Y-34811900D01*
X102112900Y-34811900D02*
X102112900Y-43411900D01*
X106412900Y-43411900D02*
X106412900Y-34811900D01*
X105662900Y-43411900D02*
X106412900Y-43411900D01*
X102112900Y-43411900D02*
X102862900Y-43411900D01*
D14*
X104412900Y-33261900D02*
G75*
G03*
X104412900Y-33261900I-100000J0D01*
G01*
D13*
%TO.C,U30*%
X116285800Y-63635800D02*
X116285800Y-62385800D01*
X118625800Y-63635800D02*
X118625800Y-62385800D01*
D14*
X116905800Y-65135800D02*
G75*
G03*
X116905800Y-65135800I-100000J0D01*
G01*
D13*
%TO.C,J4*%
X204340000Y-39849000D02*
X196940000Y-39849000D01*
X204340000Y-34099000D02*
X204340000Y-39849000D01*
X196940000Y-39849000D02*
X196940000Y-34099000D01*
X196940000Y-34099000D02*
X204340000Y-34099000D01*
D14*
X196300000Y-36449000D02*
G75*
G03*
X196300000Y-36449000I-100000J0D01*
G01*
D12*
%TO.C,R17*%
X112182000Y-92062859D02*
X112182000Y-92370141D01*
X111422000Y-92062859D02*
X111422000Y-92370141D01*
D13*
%TO.C,U19*%
X103926400Y-110614200D02*
X103926400Y-118214200D01*
X92276400Y-110614200D02*
X92276400Y-118214200D01*
D14*
X103881400Y-107894200D02*
G75*
G03*
X103881400Y-107894200I-100000J0D01*
G01*
D12*
%TO.C,C7*%
X202730000Y-73144164D02*
X202730000Y-73359836D01*
X202010000Y-73144164D02*
X202010000Y-73359836D01*
D13*
%TO.C,J9*%
X196707800Y-102315800D02*
X196707800Y-87075800D01*
X204907800Y-102315800D02*
X196707800Y-102315800D01*
X196707800Y-87075800D02*
X204907800Y-87075800D01*
X204907800Y-87075800D02*
X204907800Y-102315800D01*
D14*
X195807800Y-99775800D02*
G75*
G03*
X195807800Y-99775800I-100000J0D01*
G01*
D13*
%TO.C,S6*%
X79291400Y-89366200D02*
X79291400Y-90116200D01*
X79291400Y-92816200D02*
X79291400Y-93666200D01*
X79291400Y-93666200D02*
X87891400Y-93666200D01*
X87891400Y-89366200D02*
X79291400Y-89366200D01*
X87891400Y-90116200D02*
X87891400Y-89366200D01*
X87891400Y-93666200D02*
X87891400Y-92916200D01*
D14*
X77841400Y-91466200D02*
G75*
G03*
X77841400Y-91466200I-100000J0D01*
G01*
D13*
%TO.C,U20*%
X98363400Y-106572700D02*
X91743400Y-106572700D01*
X98363400Y-97287700D02*
X91743400Y-97287700D01*
D14*
X102028400Y-106380200D02*
G75*
G03*
X102028400Y-106380200I-100000J0D01*
G01*
D13*
%TO.C,J7*%
X100706900Y-42227900D02*
X85466900Y-42227900D01*
X100706900Y-34027900D02*
X100706900Y-42227900D01*
X85466900Y-42227900D02*
X85466900Y-34027900D01*
X85466900Y-34027900D02*
X100706900Y-34027900D01*
D14*
X98266900Y-43227900D02*
G75*
G03*
X98266900Y-43227900I-100000J0D01*
G01*
D16*
%TO.C,U6*%
X175221950Y-92271600D02*
X175221950Y-87678743D01*
X175221950Y-87678743D02*
X175221950Y-82378743D01*
X175221950Y-82378743D02*
X175221950Y-80028800D01*
X175221950Y-80028800D02*
X162979150Y-80028800D01*
X162979150Y-92271600D02*
X175221950Y-92271600D01*
X162979150Y-89921657D02*
X162979150Y-92271600D01*
X162979150Y-84621658D02*
X162979150Y-87678743D01*
X162979150Y-80028800D02*
X162979150Y-82378743D01*
X177203150Y-88800200D02*
G75*
G03*
X177203150Y-88800200I-203200J0D01*
G01*
D12*
%TO.C,C29*%
X204000000Y-70858164D02*
X204000000Y-71073836D01*
X203280000Y-70858164D02*
X203280000Y-71073836D01*
%TO.C,C13*%
X177896380Y-131944200D02*
X177615220Y-131944200D01*
X177896380Y-130924200D02*
X177615220Y-130924200D01*
D13*
%TO.C,PS8*%
X172478000Y-132045000D02*
X166478000Y-132045000D01*
X166478000Y-132045000D02*
X166478000Y-143545000D01*
X172478000Y-143545000D02*
X172478000Y-132045000D01*
X166478000Y-143545000D02*
X172478000Y-143545000D01*
D14*
X167588000Y-130685000D02*
G75*
G03*
X167588000Y-130685000I-100000J0D01*
G01*
D12*
%TO.C,C59*%
X197922800Y-62602636D02*
X197922800Y-62386964D01*
X198642800Y-62602636D02*
X198642800Y-62386964D01*
D13*
%TO.C,S1*%
X78954600Y-57022115D02*
X78954600Y-57772115D01*
X78954600Y-60472115D02*
X78954600Y-61322115D01*
X78954600Y-61322115D02*
X87554600Y-61322115D01*
X87554600Y-57022115D02*
X78954600Y-57022115D01*
X87554600Y-57772115D02*
X87554600Y-57022115D01*
X87554600Y-61322115D02*
X87554600Y-60572115D01*
D14*
X77504600Y-59122115D02*
G75*
G03*
X77504600Y-59122115I-100000J0D01*
G01*
D12*
%TO.C,R18*%
X119107800Y-76626441D02*
X119107800Y-76319159D01*
X119867800Y-76626441D02*
X119867800Y-76319159D01*
D13*
%TO.C,PS5*%
X90095400Y-119916200D02*
X90095400Y-113916200D01*
X90095400Y-113916200D02*
X78595400Y-113916200D01*
X78595400Y-119916200D02*
X90095400Y-119916200D01*
X78595400Y-113916200D02*
X78595400Y-119916200D01*
D14*
X91555400Y-114926200D02*
G75*
G03*
X91555400Y-114926200I-100000J0D01*
G01*
D12*
%TO.C,R5*%
X194178300Y-35203042D02*
X194178300Y-35677558D01*
X193133300Y-35203042D02*
X193133300Y-35677558D01*
%TO.C,C4*%
X196380000Y-75712164D02*
X196380000Y-75927836D01*
X195660000Y-75712164D02*
X195660000Y-75927836D01*
%TO.C,R13*%
X196157258Y-43532500D02*
X195682742Y-43532500D01*
X196157258Y-42487500D02*
X195682742Y-42487500D01*
D13*
%TO.C,PS3*%
X206155800Y-131526200D02*
X200155800Y-131526200D01*
X200155800Y-131526200D02*
X200155800Y-143026200D01*
X206155800Y-143026200D02*
X206155800Y-131526200D01*
X200155800Y-143026200D02*
X206155800Y-143026200D01*
D14*
X201265800Y-130166200D02*
G75*
G03*
X201265800Y-130166200I-100000J0D01*
G01*
D13*
%TO.C,U22*%
X185305800Y-92847300D02*
X191925800Y-92847300D01*
X185305800Y-102132300D02*
X191925800Y-102132300D01*
D14*
X181840800Y-93039800D02*
G75*
G03*
X181840800Y-93039800I-100000J0D01*
G01*
D12*
%TO.C,C20*%
X201840800Y-66362220D02*
X201840800Y-66643380D01*
X200820800Y-66362220D02*
X200820800Y-66643380D01*
D13*
%TO.C,J2*%
X110645800Y-34184800D02*
X110645800Y-43184800D01*
X110645800Y-49184800D02*
X110645800Y-60184800D01*
X110645800Y-60184800D02*
X111645800Y-60184800D01*
X153645800Y-60184800D02*
X176645800Y-60184800D01*
X176645800Y-34184800D02*
X110645800Y-34184800D01*
X176645800Y-34184800D02*
X176645800Y-43184800D01*
X176645800Y-49184800D02*
X176645800Y-60184800D01*
D14*
X149345800Y-61184800D02*
G75*
G03*
X149345800Y-61184800I-100000J0D01*
G01*
D12*
%TO.C,R8*%
X97530900Y-49404259D02*
X97530900Y-49711541D01*
X96770900Y-49404259D02*
X96770900Y-49711541D01*
D13*
%TO.C,U4*%
X193066300Y-123806200D02*
X193066300Y-130426200D01*
X183781300Y-123806200D02*
X183781300Y-130426200D01*
D14*
X192973800Y-120241200D02*
G75*
G03*
X192973800Y-120241200I-100000J0D01*
G01*
D12*
%TO.C,C63*%
X199446800Y-65594636D02*
X199446800Y-65378964D01*
X200166800Y-65594636D02*
X200166800Y-65378964D01*
%TD*%
M02*
